<?xml version="1.0" encoding="UTF-8" standalone="no"?>
<!-- Generator: Adobe Illustrator 15.1.0, SVG Export Plug-In . SVG Version: 6.00 Build 0)  -->

<svg
   xmlns:dc="http://purl.org/dc/elements/1.1/"
   xmlns:cc="http://creativecommons.org/ns#"
   xmlns:rdf="http://www.w3.org/1999/02/22-rdf-syntax-ns#"
   xmlns:svg="http://www.w3.org/2000/svg"
   xmlns="http://www.w3.org/2000/svg"
   xmlns:sodipodi="http://sodipodi.sourceforge.net/DTD/sodipodi-0.dtd"
   xmlns:inkscape="http://www.inkscape.org/namespaces/inkscape"
   version="1.1"
   id="Layer_1"
   x="0px"
   y="0px"
   width="187.74165"
   height="300"
   viewBox="0 0 187.74165 300"
   enable-background="new 0 0 102.932 146.946"
   xml:space="preserve"
   inkscape:version="0.48.5 r10040"
   sodipodi:docname="image7a-04.svg"><metadata
     id="metadata3817"><rdf:RDF><cc:Work
         rdf:about=""><dc:format>image/svg+xml</dc:format><dc:type
           rdf:resource="http://purl.org/dc/dcmitype/StillImage" /></cc:Work></rdf:RDF></metadata><defs
     id="defs3815" /><sodipodi:namedview
     pagecolor="#ffffff"
     bordercolor="#666666"
     borderopacity="1"
     objecttolerance="10"
     gridtolerance="10"
     guidetolerance="10"
     inkscape:pageopacity="0"
     inkscape:pageshadow="2"
     inkscape:window-width="882"
     inkscape:window-height="679"
     id="namedview3813"
     showgrid="false"
     fit-margin-top="0"
     fit-margin-left="0"
     fit-margin-right="0"
     fit-margin-bottom="0"
     inkscape:zoom="1.6060322"
     inkscape:cx="17.573866"
     inkscape:cy="201.17751"
     inkscape:window-x="0"
     inkscape:window-y="0"
     inkscape:window-maximized="0"
     inkscape:current-layer="Layer_1" /><g
     id="g4295"
     transform="matrix(1.9984013,0,0,1.9984013,-17.957698,-1.3912461e-7)"><path
       id="path3795"
       d="m 29.957,55.014 c 1.704,-0.264 1.907,0.975 3.779,0.541 -1.101,3.398 -2.312,6.688 -4.319,9.18 -1.218,-2.315 1.994,-4.832 2.699,-7.021 -0.138,-1.12 -2.371,-0.146 -2.699,-1.079 0.285,-0.434 0.563,-0.877 0.54,-1.621 z"
       clip-rule="evenodd"
       inkscape:connector-curvature="0"
       style="fill-rule:evenodd" /><path
       id="path3797"
       d="m 27.796,56.096 c -0.051,2.286 -1.947,2.743 0,4.319 -0.123,1.856 -1.606,2.353 -3.24,2.7 0.674,-1.441 1.851,-3.527 -0.539,-3.781 0.17,-1.27 2.56,-0.319 2.16,-2.159 -0.457,-1.274 -1.329,1.488 -3.239,0.539 0.045,-2.414 3.106,-2.411 4.858,-1.618 z"
       clip-rule="evenodd"
       inkscape:connector-curvature="0"
       style="fill-rule:evenodd" /><path
       id="path3799"
       d="m 24.017,59.875 c -0.758,1.041 -0.294,3.306 -2.699,2.699 -0.329,-2.129 1.206,-2.392 2.699,-2.699 z"
       clip-rule="evenodd"
       inkscape:connector-curvature="0"
       style="fill-rule:evenodd" /><path
       id="path3801"
       d="m 15.917,3.175 c 0.54,0 1.08,0 1.619,0 -0.517,1.642 -1.09,3.229 -1.619,4.86 1.624,0.881 2.6,-3.504 5.4,-3.24 -0.969,2.271 -1.037,5.443 -3.24,6.479 -6.197,23.185 -4.516,63.49 0,87.48 1.673,3.368 4.764,5.318 4.86,10.26 5.537,0.258 7.511,-6.588 11.339,-9.719 11.932,-22.723 11.471,-62.546 7.561,-92.88 4.332,-0.446 3.316,4.575 3.779,7.02 5.107,26.924 4.092,60.185 -3.779,85.319 -4.287,1.142 -5.227,5.852 -7.561,9.721 1.336,0.594 2.811,-3.294 4.32,-4.32 -0.316,5.263 -3.935,7.226 -5.939,10.8 1.533,2.495 3.812,2.192 5.939,4.319 6.806,6.807 6.18,24.613 -2.159,27 -2.774,0.796 -6.798,0.115 -8.101,-2.158 3.949,-4.124 8.682,-6.939 7.02,-14.041 -0.396,-1.691 -3.038,-4.506 -4.86,-5.939 -1.249,-0.984 -5.736,-4.318 -5.94,-4.32 -4.045,-0.021 -8.02,9.943 -9.178,14.58 1.979,4.861 4.631,9.048 9.719,10.8 -1.96,1.606 -6.732,2.417 -9.18,1.079 C 4.352,139.957 8.793,119.664 18.616,113.336 13.067,103.391 10.147,92.983 9.437,77.696 8.312,53.527 8.886,18.176 15.917,3.175 z"
       clip-rule="evenodd"
       inkscape:connector-curvature="0"
       style="fill-rule:evenodd" /><path
       id="path3803"
       d="m 94.288,4.32 c 1.23,1.02 2.014,-3.003 4.32,-2.699 -1.039,2.715 0.457,1.785 2.16,2.699 0,1.08 0,2.159 0,3.24 -1.129,0.311 -1.542,1.339 -3.24,1.08 0.451,-1.168 1.398,-1.842 1.08,-3.781 -1.96,0.398 -2.118,2.92 -1.62,4.321 -2.977,-1.823 -2.572,-0.917 -5.94,0 C 91.607,6.601 93.297,6.064 91.589,3.779 92.474,2.684 94,2.231 93.748,0 c 1.808,0.151 2.321,3.707 0.54,4.32 z"
       clip-rule="evenodd"
       inkscape:connector-curvature="0"
       style="fill-rule:evenodd" /><path
       id="path3805"
       d="m 100.769,0 c 0.479,0.42 1.219,0.58 2.16,0.539 0.09,1.672 -1.9,2.43 -2.7,1.621 -0.07,-0.969 0.661,-1.139 0.54,-2.16 z"
       clip-rule="evenodd"
       inkscape:connector-curvature="0"
       style="fill-rule:evenodd" /><path
       id="path3807"
       d="m 92.669,0.539 c -0.102,1.52 -0.939,2.302 -2.7,2.161 -0.523,-2.143 1.563,-1.676 2.7,-2.161 z"
       clip-rule="evenodd"
       inkscape:connector-curvature="0"
       style="fill-rule:evenodd" /><path
       id="path3809"
       d="m 87.269,5.94 c 1.252,-0.173 2.073,0.087 2.7,0.539 -0.486,0.955 -1.304,1.577 -1.62,2.701 -1.422,-0.711 -1.656,-1.774 -1.08,-3.24 z"
       clip-rule="evenodd"
       inkscape:connector-curvature="0"
       style="fill-rule:evenodd" /><path
       id="path3811"
       d="m 91.589,43.74 c -0.012,-7.146 2.811,9.361 2.699,10.799 -0.042,0.553 -1.619,0.518 -1.619,0.541 -0.002,1.549 1.346,0.243 1.619,1.62 0.236,1.192 -1.302,0.108 -1.619,1.62 0.282,-1.344 1.777,4.533 0.54,5.399 3.709,-3.322 0.933,-9.475 0.539,-14.579 -0.312,-4.051 0.237,-7.955 0,-11.881 3.679,36.837 5.751,75.544 7.56,112.861 -3.414,-16.361 -5.061,-35.5 -7.56,-53.461 -1.675,-12.041 -0.142,-25.279 -7.02,-35.1 -2.643,2.938 -4.265,6.896 -4.319,12.419 -1.09,-2.935 -2.267,-2.015 -2.161,-7.02 -1.722,3.803 0.638,8.878 1.62,10.26 -0.801,13.675 -2.363,29.909 -3.24,45.36 -0.557,9.816 -0.366,19.879 -3.779,27.541 1.304,-25.002 -0.172,-50.775 1.08,-75.061 0.475,-9.207 -0.072,-17.301 0,-28.62 0.037,-5.965 1.268,-12.082 0.54,-17.28 -0.328,-2.338 -1.71,-4.259 -1.62,-6.479 0.484,-12.117 20.938,-12.211 22.14,0.539 -1.054,4.611 -4.427,7.626 -2.7,13.5 -1.844,-0.316 -0.307,-4.013 -1.619,-4.86 -0.713,2.012 -1.678,5.322 -1.621,8.101 1.171,0.091 0.245,-1.916 0.541,-2.7 1.563,1.602 -0.209,4.447 -0.001,6.481 z M 85.108,26.46 c 0.324,-1.403 -0.217,-1.942 -1.62,-1.62 -0.122,1.021 0.608,1.191 0.54,2.16 1.961,-0.02 4.264,0.304 4.859,-1.08 -1.291,-1.446 0.33,-2.451 -0.539,-4.32 -1.352,-0.067 -1.69,-1.029 -2.16,0.541 2.878,1.978 1.548,4.011 -1.08,4.319 z m 5.94,1.079 c 1.234,-1.537 1.137,-2 1.621,-4.858 -0.852,-0.05 -0.424,-1.378 -1.621,-1.081 0.558,2.209 -0.873,5.206 0,5.939 z M 81.327,62.1 c -0.742,0.023 -1.185,-0.254 -1.618,-0.539 1.821,2.098 0.993,6.723 2.159,8.1 C 82.325,55.016 84.479,43.807 83.488,34.02 83.37,33.6 83.036,33.392 82.409,33.48 82.188,44.044 81.454,50.319 81.327,62.1 z m 3.781,-2.16 c -0.504,-0.331 -1.992,-1.257 -1.62,0.539 1.421,0.653 2.046,0.37 3.78,-0.539 -0.404,-7.823 1.322,-18.147 -1.619,-25.921 0.37,9.036 -2.056,17.461 -0.541,25.921 z m -4.32,-0.54 c -0.146,-1.156 0.418,-5.762 -0.54,-4.32 0.147,1.156 -0.417,5.762 0.54,4.32 z"
       clip-rule="evenodd"
       inkscape:connector-curvature="0"
       style="fill-rule:evenodd" /></g></svg>