<?xml version="1.0" encoding="UTF-8" standalone="no"?>
<!-- Created with Inkscape (http://www.inkscape.org/) -->

<svg
   xmlns:osb="http://www.openswatchbook.org/uri/2009/osb"
   xmlns:dc="http://purl.org/dc/elements/1.1/"
   xmlns:cc="http://creativecommons.org/ns#"
   xmlns:rdf="http://www.w3.org/1999/02/22-rdf-syntax-ns#"
   xmlns:svg="http://www.w3.org/2000/svg"
   xmlns="http://www.w3.org/2000/svg"
   xmlns:xlink="http://www.w3.org/1999/xlink"
   xmlns:sodipodi="http://sodipodi.sourceforge.net/DTD/sodipodi-0.dtd"
   xmlns:inkscape="http://www.inkscape.org/namespaces/inkscape"
   width="200"
   height="200"
   id="svg2"
   version="1.1"
   inkscape:version="0.48.5 r10040"
   sodipodi:docname="osd_face_200.svg"
   inkscape:export-filename="/Users/lucacorsato/Documents/osd/website/osdfront/assets/img/osd_simple_200.png"
   inkscape:export-xdpi="320"
   inkscape:export-ydpi="320">
  <defs
     id="defs4">
    <linearGradient
       id="linearGradient4444"
       osb:paint="solid">
      <stop
         style="stop-color:#002fa7;stop-opacity:1;"
         offset="0"
         id="stop4446" />
    </linearGradient>
    <linearGradient
       inkscape:collect="always"
       xlink:href="#linearGradient4444"
       id="linearGradient4448"
       x1="1481.6096"
       y1="393.59521"
       x2="3401.6096"
       y2="393.59521"
       gradientUnits="userSpaceOnUse" />
    <linearGradient
       inkscape:collect="always"
       xlink:href="#linearGradient4444"
       id="linearGradient4452"
       gradientUnits="userSpaceOnUse"
       x1="1481.6096"
       y1="393.59521"
       x2="3401.6096"
       y2="393.59521"
       gradientTransform="translate(-1761.6116,2283.4524)" />
  </defs>
  <sodipodi:namedview
     id="base"
     pagecolor="#ffffff"
     bordercolor="#666666"
     borderopacity="1.0"
     inkscape:pageopacity="0.0"
     inkscape:pageshadow="2"
     inkscape:zoom="2.5600001"
     inkscape:cx="32.688243"
     inkscape:cy="85.747289"
     inkscape:document-units="px"
     inkscape:current-layer="layer11"
     showgrid="false"
     inkscape:window-width="1440"
     inkscape:window-height="851"
     inkscape:window-x="0"
     inkscape:window-y="0"
     inkscape:window-maximized="1" />
  <metadata
     id="metadata7">
    <rdf:RDF>
      <cc:Work
         rdf:about="">
        <dc:format>image/svg+xml</dc:format>
        <dc:type
           rdf:resource="http://purl.org/dc/dcmitype/StillImage" />
        <dc:title></dc:title>
      </cc:Work>
    </rdf:RDF>
  </metadata>
  <g
     inkscape:groupmode="layer"
     id="layer1"
     inkscape:label="sfondo"
     transform="translate(0,162.5)"
     style="display:inline"
     sodipodi:insensitive="true">
    <path
       sodipodi:type="arc"
       style="fill:#f2f2f2;fill-opacity:1;fill-rule:evenodd;stroke:none;display:inline"
       id="path2995"
       sodipodi:cx="-168.49028"
       sodipodi:cy="-199.14465"
       sodipodi:rx="99.989319"
       sodipodi:ry="94.46505"
       d="m -68.500961,-199.14465 a 99.989319,94.46505 0 1 1 -199.978639,0 99.989319,94.46505 0 1 1 199.978639,0 z"
       transform="matrix(1.0001068,0,0,1.0585926,268.50827,148.31305)"
       inkscape:export-filename="/Users/lucacorsato/Documents/osd/website/osdfront/assets/img/o{s}d_simple_200.png"
       inkscape:export-xdpi="320"
       inkscape:export-ydpi="320" />
  </g>
  <g
     inkscape:groupmode="layer"
     id="layer2"
     inkscape:label="s">
    <text
       xml:space="preserve"
       style="font-size:70.68162537px;font-style:normal;font-variant:normal;font-weight:bold;font-stretch:normal;text-align:start;line-height:125%;letter-spacing:0px;word-spacing:0px;writing-mode:lr-tb;text-anchor:start;fill:#1a1a1a;fill-opacity:1;stroke:none;display:inline;font-family:Open Sans;-inkscape-font-specification:Open Sans Bold"
       x="81.552589"
       y="160.71704"
       id="text3777"
       sodipodi:linespacing="125%"><tspan
         sodipodi:role="line"
         id="tspan3779"
         x="81.552589"
         y="160.71704">s</tspan></text>
  </g>
  <g
     inkscape:groupmode="layer"
     id="layer11"
     inkscape:label="logo"
     style="display:inline"
     transform="translate(0,-852.3622)">
    <path
       inkscape:connector-curvature="0"
       id="path4298"
       style="font-size:56px;font-style:normal;font-variant:normal;font-weight:normal;font-stretch:normal;text-align:start;line-height:125%;letter-spacing:0px;word-spacing:0px;writing-mode:lr-tb;text-anchor:start;fill:#ea5480;fill-opacity:1;stroke:none;display:inline;font-family:Liberation Serif;-inkscape-font-specification:Liberation Serif"
       d="m 36.180438,993.50895 c 3e-4,-6.18945 1.9137,-10.95457 5.7406,-14.29479 3.827,-3.29147 9.2191,-4.93707 16.177,-4.93705 l 21.9921,0 c 5.8147,-2e-5 10.16376,-1.30181 13.04633,-3.90517 2.93215,-2.55462 4.49762,-6.53352 4.69643,-11.93731 l 3.354612,0 c 0.19923,10.56178 6.06337,15.84246 17.59367,15.84248 l 21.91769,0 c 7.00752,-2e-5 12.39964,1.59648 16.17703,4.78948 3.77705,3.1932 5.66575,8.00711 5.66575,14.44236 l 0,9.94775 -3.50401,0 0,-4.56875 c 0,-4.4703 -1.36676,-7.66321 -4.1,-9.57902 -2.68396,-1.86662 -6.65973,-2.79994 -11.92791,-2.79992 l -24.60111,0 c -4.72169,-2e-5 -8.79704,-1.27733 -12.22634,-3.8318 -3.37946,-2.55433 -5.54122,-5.99309 -6.485842,-10.31602 l -0.22351,0 c -1.04347,4.37205 -3.25507,7.81079 -6.63481,10.31602 -3.32962,2.55447 -7.40508,3.83178 -12.22618,3.8318 l -24.8993,0 c -5.2681,-2e-5 -9.244,0.9333 -11.9281,2.79992 -2.733,1.91581 -4.0998,5.10872 -4.0998,9.57902 l 0,4.56875 -3.504,0 0,-9.94775"
       inkscape:export-filename="/Users/lucacorsato/Documents/o{s}d/o{s}d_semplice.png"
       inkscape:export-xdpi="300"
       inkscape:export-ydpi="300" />
    <path
       inkscape:connector-curvature="0"
       id="path4292"
       style="font-size:28px;font-style:normal;font-variant:normal;font-weight:bold;font-stretch:normal;text-align:start;line-height:125%;letter-spacing:0px;word-spacing:0px;writing-mode:lr-tb;text-anchor:start;fill:#ea5480;fill-opacity:1;stroke:none;display:inline;font-family:Open Sans;-inkscape-font-specification:Open Sans Bold"
       d="m 49.638815,939.18941 c -2.7e-5,4.12547 0.663073,7.2441 1.989401,9.35633 1.350863,2.11193 3.536909,3.16819 6.558057,3.16819 2.996569,0 5.145812,-1.04376 6.447646,-3.13085 1.326355,-2.1125 1.989553,-5.24349 1.989566,-9.39367 -1.3e-5,-4.12518 -0.663211,-7.21882 -1.989566,-9.28134 -1.326452,-2.06248 -3.500175,-3.09404 -6.521239,-3.09404 -2.996639,0 -5.158067,1.03156 -6.484464,3.09404 -1.326328,2.03767 -1.989428,5.13131 -1.989401,9.28134 m 28.479654,0 c -5.5e-5,6.78399 -1.768454,12.08955 -5.305378,15.91652 -3.537089,3.82711 -8.46154,5.74023 -14.774116,5.74023 -3.95439,0 -7.442339,-0.86937 -10.463431,-2.60896 -3.021132,-1.76473 -5.342139,-4.28665 -6.963519,-7.56703 -1.621019,-3.2801 -2.431556,-7.10706 -2.431556,-11.48076 0,-6.80857 1.756062,-12.10174 5.268519,-15.87915 3.512471,-3.77718 8.449522,-5.66586 14.810933,-5.66586 3.95464,0 7.442243,0.86968 10.463709,2.60929 3.021063,1.73964 5.342112,4.2369 6.96327,7.4925 1.620977,3.25534 2.431514,7.06966 2.431569,11.44322"
       inkscape:export-filename="/Users/lucacorsato/Documents/o{s}d/o{s}d_semplice.png"
       inkscape:export-xdpi="300"
       inkscape:export-ydpi="300" />
    <path
       d="m 137.5886,960.84616 c -4.83879,0 -8.64579,-1.90103 -11.42135,-5.70296 -2.75098,-3.80192 -4.12631,-9.07006 -4.12631,-15.80441 0,-6.83361 1.39982,-12.15148 4.19999,-15.95326 2.82458,-3.82704 6.70528,-5.74054 11.64234,-5.74054 5.18247,0 9.13709,2.03775 11.86328,6.11302 l 0.36855,0 c -0.56495,-3.10611 -0.84733,-5.87706 -0.84728,-8.31207 l 0,-13.34454 11.27379,0 0,57.99951 -8.62128,0 -2.17378,-5.40474 -0.47873,0 c -2.55461,4.1 -6.44755,6.14999 -11.67922,6.14999 m 3.9421,-9.05756 c 2.8737,0 4.97377,-0.84494 6.30017,-2.53439 1.35072,-1.69001 2.08756,-4.56037 2.21061,-8.61081 l 0,-1.23006 c -3e-5,-4.47276 -0.68774,-7.67826 -2.06332,-9.61692 -1.3509,-1.93799 -3.56145,-2.90746 -6.63157,-2.90746 -2.50552,0 -4.45804,1.08109 -5.85805,3.24316 -1.37549,2.13704 -2.06323,5.25564 -2.06322,9.35564 -3e-5,4.10042 0.70005,7.18166 2.10002,9.2443 1.40004,2.03778 3.40169,3.05654 6.00533,3.05654"
       style="font-size:28px;font-style:normal;font-variant:normal;font-weight:bold;font-stretch:normal;text-align:start;line-height:125%;letter-spacing:0px;word-spacing:0px;writing-mode:lr-tb;text-anchor:start;fill:#002fa7;fill-opacity:1;stroke:none;display:inline;font-family:Open Sans;-inkscape-font-specification:Open Sans Bold"
       id="path4296"
       inkscape:connector-curvature="0"
       inkscape:export-filename="/Users/lucacorsato/Documents/o{s}d/o{s}d_semplice.png"
       inkscape:export-xdpi="300"
       inkscape:export-ydpi="300" />
    <path
       inkscape:connector-curvature="0"
       id="path4300"
       style="font-size:56px;font-style:normal;font-variant:normal;font-weight:normal;font-stretch:normal;text-align:start;line-height:125%;letter-spacing:0px;word-spacing:0px;writing-mode:lr-tb;text-anchor:start;fill:#002fa7;fill-opacity:1;stroke:none;display:inline;font-family:Liberation Serif;-inkscape-font-specification:Liberation Serif"
       d="m 36.180469,883.9424 3.5043,0 0,4.5684 c 0,4.47023 1.3668,7.63861 4.0998,9.50546 2.6841,1.91567 6.66,2.87378 11.9281,2.87381 l 24.89933,0 c 4.820961,-3e-5 8.896241,1.25239 12.226141,3.75791 3.37974,2.50518 5.59134,5.96842 6.63481,10.38961 l 0.22351,0 c 0.94434,-4.32291 3.13123,-7.76172 6.56025,-10.31595 3.42945,-2.55461 7.47974,-3.8316 12.15188,-3.83157 l 24.60109,0 c 5.26818,-3e-5 9.24395,-0.95814 11.92792,-2.87381 2.73323,-1.86685 4.1,-5.03523 4.1,-9.50546 l 0,-4.5684 3.50401,0 0,10.02107 c -3e-4,6.38609 -1.889,11.17585 -5.66604,14.36881 -3.7771,3.19285 -9.16949,4.7893 -16.17674,4.78936 l -21.9177,0 c -11.53023,-6e-5 -17.39466,5.28104 -17.5936,15.84251 l -3.35461,0 c -0.19909,-5.30534 -1.73929,-9.28449 -4.62201,-11.93692 -2.88272,-2.60375 -7.25622,-3.90565 -13.120791,-3.90559 l -21.99203,0 c -6.90832,-6e-5 -12.27582,-1.67015 -16.10252,-5.01038 -3.8766,-3.29142 -5.8151,-8.00717 -5.8151,-14.14779 l 0,-10.02107"
       inkscape:export-filename="/Users/lucacorsato/Documents/o{s}d/o{s}d_semplice.png"
       inkscape:export-xdpi="300"
       inkscape:export-ydpi="300" />
  </g>
</svg>
