<?xml version="1.0" encoding="UTF-8" standalone="no"?>
<!-- Created with Inkscape (http://www.inkscape.org/) -->

<svg
   xmlns:osb="http://www.openswatchbook.org/uri/2009/osb"
   xmlns:dc="http://purl.org/dc/elements/1.1/"
   xmlns:cc="http://creativecommons.org/ns#"
   xmlns:rdf="http://www.w3.org/1999/02/22-rdf-syntax-ns#"
   xmlns:svg="http://www.w3.org/2000/svg"
   xmlns="http://www.w3.org/2000/svg"
   xmlns:xlink="http://www.w3.org/1999/xlink"
   xmlns:sodipodi="http://sodipodi.sourceforge.net/DTD/sodipodi-0.dtd"
   xmlns:inkscape="http://www.inkscape.org/namespaces/inkscape"
   width="100"
   height="100"
   id="svg2"
   version="1.1"
   inkscape:version="0.48.5 r10040"
   sodipodi:docname="osd_simple_200.svg"
   inkscape:export-filename="/Users/lucacorsato/Documents/osd/website/osdfront/assets/img/osd_simple_200.png"
   inkscape:export-xdpi="320"
   inkscape:export-ydpi="320">
  <defs
     id="defs4">
    <linearGradient
       id="linearGradient4444"
       osb:paint="solid">
      <stop
         style="stop-color:#002fa7;stop-opacity:1;"
         offset="0"
         id="stop4446" />
    </linearGradient>
    <linearGradient
       inkscape:collect="always"
       xlink:href="#linearGradient4444"
       id="linearGradient4448"
       x1="1481.6096"
       y1="393.59521"
       x2="3401.6096"
       y2="393.59521"
       gradientUnits="userSpaceOnUse" />
    <linearGradient
       inkscape:collect="always"
       xlink:href="#linearGradient4444"
       id="linearGradient4452"
       gradientUnits="userSpaceOnUse"
       x1="1481.6096"
       y1="393.59521"
       x2="3401.6096"
       y2="393.59521"
       gradientTransform="translate(-1761.6116,2283.4524)" />
  </defs>
  <sodipodi:namedview
     id="base"
     pagecolor="#ffffff"
     bordercolor="#666666"
     borderopacity="1.0"
     inkscape:pageopacity="0.0"
     inkscape:pageshadow="2"
     inkscape:zoom="0.64000002"
     inkscape:cx="55.209593"
     inkscape:cy="-125.5959"
     inkscape:document-units="px"
     inkscape:current-layer="layer1"
     showgrid="false"
     inkscape:window-width="1440"
     inkscape:window-height="851"
     inkscape:window-x="0"
     inkscape:window-y="0"
     inkscape:window-maximized="1" />
  <metadata
     id="metadata7">
    <rdf:RDF>
      <cc:Work
         rdf:about="">
        <dc:format>image/svg+xml</dc:format>
        <dc:type
           rdf:resource="http://purl.org/dc/dcmitype/StillImage" />
        <dc:title></dc:title>
      </cc:Work>
    </rdf:RDF>
  </metadata>
  <g
     inkscape:groupmode="layer"
     id="layer1"
     inkscape:label="sfondo"
     transform="translate(0,62.5)"
     style="display:none">
    <path
       sodipodi:type="arc"
       style="fill:#f2f2f2;fill-opacity:1;fill-rule:evenodd;stroke:none;display:inline"
       id="path2995"
       sodipodi:cx="-168.49028"
       sodipodi:cy="-199.14465"
       sodipodi:rx="99.989319"
       sodipodi:ry="94.46505"
       d="m -68.500961,-199.14465 a 99.989319,94.46505 0 1 1 -199.978639,0 99.989319,94.46505 0 1 1 199.978639,0 z"
       transform="matrix(0.50005341,0,0,0.52929631,134.25414,92.906524)"
       inkscape:export-filename="/Users/lucacorsato/Documents/osd/website/osdfront/assets/img/o{s}d_simple_200.png"
       inkscape:export-xdpi="320"
       inkscape:export-ydpi="320" />
  </g>
  <g
     inkscape:groupmode="layer"
     id="layer11"
     inkscape:label="logo"
     style="display:inline"
     transform="translate(0,-952.3622)">
    <path
       inkscape:connector-curvature="0"
       id="path4292"
       style="font-size:28px;font-style:normal;font-variant:normal;font-weight:bold;font-stretch:normal;text-align:start;line-height:125%;letter-spacing:0px;word-spacing:0px;writing-mode:lr-tb;text-anchor:start;fill:#ea5480;fill-opacity:1;stroke:none;display:inline;font-family:Open Sans;-inkscape-font-specification:Open Sans Bold"
       d="m 13.526261,1002.4164 c -1.4e-5,2.0628 0.331536,3.6221 0.9947,4.6782 0.675432,1.056 1.768455,1.5841 3.279029,1.5841 1.498284,0 2.572906,-0.5219 3.223823,-1.5654 0.663177,-1.0563 0.994776,-2.6218 0.994783,-4.6969 -7e-6,-2.0626 -0.331606,-3.60938 -0.994783,-4.64064 -0.663226,-1.03124 -1.750088,-1.54702 -3.26062,-1.54702 -1.498319,0 -2.579033,0.51578 -3.242232,1.54702 -0.663164,1.01883 -0.994714,2.56564 -0.9947,4.64064 m 14.239827,0 c -2.8e-5,3.392 -0.884227,6.0448 -2.652689,7.9583 -1.768545,1.9135 -4.23077,2.8701 -7.387058,2.8701 -1.977195,0 -3.72117,-0.4347 -5.231716,-1.3045 -1.510566,-0.8823 -2.6710696,-2.1433 -3.4817596,-3.7835 -0.8105095,-1.64 -1.215778,-3.5535 -1.215778,-5.7404 0,-3.40426 0.878031,-6.05084 2.6342596,-7.93955 1.756235,-1.88859 4.224761,-2.83293 7.405467,-2.83293 1.97732,0 3.721121,0.43484 5.231854,1.30465 1.510532,0.86982 2.671056,2.11845 3.481635,3.74625 0.810489,1.62767 1.215757,3.53478 1.215785,5.72158"
       inkscape:export-filename="/Users/lucacorsato/Documents/o{s}d/o{s}d_semplice.png"
       inkscape:export-xdpi="300"
       inkscape:export-ydpi="300" />
    <path
       d="m 80.561601,1013.2449 c -2.419396,0 -4.322901,-0.9505 -5.710681,-2.8515 -1.37549,-1.901 -2.063155,-4.535 -2.063155,-7.9022 0,-3.41681 0.69991,-6.07575 2.099995,-7.97664 1.412295,-1.91352 3.352645,-2.87027 5.821176,-2.87027 2.591235,0 4.568545,1.01888 5.93164,3.05651 l 0.184275,0 c -0.282475,-1.55305 -0.423665,-2.93853 -0.42364,-4.15603 l 0,-6.67227 5.636895,0 0,28.9998 -4.31064,0 -1.08689,-2.7024 -0.239365,0 c -1.277305,2.05 -3.223775,3.075 -5.83961,3.075 m 1.97105,-4.5288 c 1.43685,0 2.486885,-0.4225 3.150085,-1.2672 0.67536,-0.845 1.04378,-2.2802 1.105305,-4.3054 l 0,-0.615 c -1.5e-5,-2.2364 -0.34387,-3.83916 -1.03166,-4.80849 -0.67545,-0.969 -1.780725,-1.45373 -3.315785,-1.45373 -1.25276,0 -2.22902,0.54054 -2.929025,1.62158 -0.687746,1.06852 -1.031616,2.62784 -1.031611,4.67784 -1.5e-5,2.0502 0.350025,3.5908 1.050011,4.6221 0.70002,1.0189 1.700845,1.5283 3.002665,1.5283"
       style="font-size:28px;font-style:normal;font-variant:normal;font-weight:bold;font-stretch:normal;text-align:start;line-height:125%;letter-spacing:0px;word-spacing:0px;writing-mode:lr-tb;text-anchor:start;fill:#002fa7;fill-opacity:1;stroke:none;display:inline;font-family:Open Sans;-inkscape-font-specification:Open Sans Bold"
       id="path4296"
       inkscape:connector-curvature="0"
       inkscape:export-filename="/Users/lucacorsato/Documents/o{s}d/o{s}d_semplice.png"
       inkscape:export-xdpi="300"
       inkscape:export-ydpi="300" />
    <g
       id="g3781"
       transform="matrix(0.50000001,0,0,0.50000001,-1.3100982e-6,526.18109)">
      <path
         inkscape:export-ydpi="300"
         inkscape:export-xdpi="300"
         inkscape:export-filename="/Users/lucacorsato/Documents/o{s}d/o{s}d_semplice.png"
         d="m 90.606059,1015.7074 c -6.189514,-3e-4 -10.954632,-1.9137 -14.294854,-5.7406 -3.29147,-3.827 -4.937073,-9.2191 -4.937045,-16.17702 l 0,-21.99203 c -2.8e-5,-5.81472 -1.301817,-10.1638 -3.905173,-13.04637 -2.554619,-2.93215 -6.533523,-4.49762 -11.937309,-4.69643 l 0,-3.35461 c 10.561775,-0.19923 15.842454,-6.06337 15.842482,-17.59367 l 0,-21.91769 c -2.8e-5,-7.00752 1.596477,-12.39964 4.789472,-16.17703 3.193204,-3.77705 8.007115,-5.66575 14.442427,-5.66575 l 9.947711,0 0,3.50401 -4.568738,0 c -4.470333,0 -7.663245,1.36676 -9.579056,4.1 -1.866616,2.68396 -2.799944,6.65973 -2.799917,11.92791 l 0,24.60111 c -2.7e-5,4.72169 -1.277337,8.79704 -3.831803,12.22634 -2.554327,3.37946 -5.993092,5.54122 -10.316018,6.48584 l 0,0.22351 c 4.372052,1.04347 7.81079,3.25507 10.316018,6.63481 2.554466,3.32962 3.831776,7.40504 3.831803,12.22614 l 0,24.89933 c -2.7e-5,5.2681 0.933301,9.244 2.799917,11.9281 1.915811,2.733 5.108723,4.0998 9.579056,4.0998 l 4.568738,0 0,3.504 -9.947711,0"
         style="font-size:56px;font-style:normal;font-variant:normal;font-weight:normal;font-stretch:normal;text-align:start;line-height:125%;letter-spacing:0px;word-spacing:0px;writing-mode:lr-tb;text-anchor:start;fill:#ea5480;fill-opacity:1;stroke:none;display:inline;font-family:Liberation Serif;-inkscape-font-specification:Liberation Serif"
         id="path4298"
         inkscape:connector-curvature="0" />
      <path
         inkscape:export-ydpi="300"
         inkscape:export-xdpi="300"
         inkscape:export-filename="/Users/lucacorsato/Documents/o{s}d/o{s}d_semplice.png"
         d="m 100.55377,1015.7074 0,-3.5043 4.5684,0 c 4.47024,0 7.63862,-1.3668 9.50547,-4.0998 1.91567,-2.6841 2.87378,-6.66 2.87381,-11.9281 l 0,-24.89933 c -3e-5,-4.82096 1.25239,-8.89624 3.75791,-12.22614 2.50518,-3.37974 5.96842,-5.59134 10.38961,-6.63481 l 0,-0.22351 c -4.32291,-0.94434 -7.76172,-3.13123 -10.31595,-6.56025 -2.55461,-3.42945 -3.8316,-7.47974 -3.83157,-12.15188 l 0,-24.6011 c -3e-5,-5.26818 -0.95814,-9.24395 -2.87381,-11.92792 -1.86685,-2.73323 -5.03523,-4.1 -9.50547,-4.1 l -4.5684,0 0,-3.50401 10.02108,0 c 6.38609,3e-4 11.17585,1.889 14.36881,5.66604 3.19285,3.7771 4.7893,9.16949 4.78936,16.17674 l 0,21.9177 c -6e-5,11.53024 5.28104,17.39467 15.84251,17.59361 l 0,3.35461 c -5.30534,0.19909 -9.28449,1.73929 -11.93692,4.62201 -2.60375,2.88272 -3.90565,7.25622 -3.90559,13.12079 l 0,21.99203 c -6e-5,6.90832 -1.67015,12.27582 -5.01038,16.10252 -3.29142,3.8766 -8.00717,5.8151 -14.14779,5.8151 l -10.02108,0"
         style="font-size:56px;font-style:normal;font-variant:normal;font-weight:normal;font-stretch:normal;text-align:start;line-height:125%;letter-spacing:0px;word-spacing:0px;writing-mode:lr-tb;text-anchor:start;fill:#002fa7;fill-opacity:1;stroke:none;display:inline;font-family:Liberation Serif;-inkscape-font-specification:Liberation Serif"
         id="path4300"
         inkscape:connector-curvature="0" />
    </g>
    <text
       xml:space="preserve"
       style="font-size:35.34081268px;font-style:normal;font-variant:normal;font-weight:bold;font-stretch:normal;text-align:start;line-height:125%;letter-spacing:0px;word-spacing:0px;writing-mode:lr-tb;text-anchor:start;fill:#1a1a1a;fill-opacity:1;stroke:none;font-family:Open Sans;-inkscape-font-specification:Open Sans Bold"
       x="41.372574"
       y="1012.0994"
       id="text3777"
       sodipodi:linespacing="125%"><tspan
         sodipodi:role="line"
         id="tspan3779"
         x="41.372574"
         y="1012.0994">s</tspan></text>
  </g>
</svg>
