<?xml version="1.0" encoding="UTF-8" standalone="no"?>
<!-- Created with Inkscape (http://www.inkscape.org/) -->

<svg
   xmlns:osb="http://www.openswatchbook.org/uri/2009/osb"
   xmlns:dc="http://purl.org/dc/elements/1.1/"
   xmlns:cc="http://creativecommons.org/ns#"
   xmlns:rdf="http://www.w3.org/1999/02/22-rdf-syntax-ns#"
   xmlns:svg="http://www.w3.org/2000/svg"
   xmlns="http://www.w3.org/2000/svg"
   xmlns:xlink="http://www.w3.org/1999/xlink"
   xmlns:sodipodi="http://sodipodi.sourceforge.net/DTD/sodipodi-0.dtd"
   xmlns:inkscape="http://www.inkscape.org/namespaces/inkscape"
   width="50"
   height="50"
   id="svg2"
   version="1.1"
   inkscape:version="0.48.5 r10040"
   sodipodi:docname="osd_simple_200.svg"
   inkscape:export-filename="/Users/lucacorsato/Documents/osd/website/osdfront/assets/img/osd_simple_200.png"
   inkscape:export-xdpi="320"
   inkscape:export-ydpi="320">
  <defs
     id="defs4">
    <linearGradient
       id="linearGradient4444"
       osb:paint="solid">
      <stop
         style="stop-color:#002fa7;stop-opacity:1;"
         offset="0"
         id="stop4446" />
    </linearGradient>
    <linearGradient
       inkscape:collect="always"
       xlink:href="#linearGradient4444"
       id="linearGradient4448"
       x1="1481.6096"
       y1="393.59521"
       x2="3401.6096"
       y2="393.59521"
       gradientUnits="userSpaceOnUse" />
    <linearGradient
       inkscape:collect="always"
       xlink:href="#linearGradient4444"
       id="linearGradient4452"
       gradientUnits="userSpaceOnUse"
       x1="1481.6096"
       y1="393.59521"
       x2="3401.6096"
       y2="393.59521"
       gradientTransform="translate(-1761.6116,2283.4524)" />
  </defs>
  <sodipodi:namedview
     id="base"
     pagecolor="#ffffff"
     bordercolor="#666666"
     borderopacity="1.0"
     inkscape:pageopacity="0.0"
     inkscape:pageshadow="2"
     inkscape:zoom="1.8101934"
     inkscape:cx="46.483263"
     inkscape:cy="95.046208"
     inkscape:document-units="px"
     inkscape:current-layer="layer1"
     showgrid="false"
     inkscape:window-width="1440"
     inkscape:window-height="851"
     inkscape:window-x="0"
     inkscape:window-y="0"
     inkscape:window-maximized="1" />
  <metadata
     id="metadata7">
    <rdf:RDF>
      <cc:Work
         rdf:about="">
        <dc:format>image/svg+xml</dc:format>
        <dc:type
           rdf:resource="http://purl.org/dc/dcmitype/StillImage" />
        <dc:title></dc:title>
      </cc:Work>
    </rdf:RDF>
  </metadata>
  <g
     inkscape:groupmode="layer"
     id="layer1"
     inkscape:label="sfondo"
     transform="translate(0,12.5)"
     style="display:inline" />
  <g
     inkscape:groupmode="layer"
     id="layer11"
     inkscape:label="logo"
     style="display:inline"
     transform="translate(0,-1002.3622)">
    <g
       id="g3795"
       transform="matrix(0.29676755,0,0,0.29676755,-4.6278459,744.68316)">
      <path
         inkscape:export-ydpi="300"
         inkscape:export-xdpi="300"
         inkscape:export-filename="/Users/lucacorsato/Documents/o{s}d/o{s}d_semplice.png"
         d="m 27.052523,952.47066 c -2.7e-5,4.12547 0.663073,7.2441 1.989401,9.35633 1.350863,2.11193 3.536909,3.16819 6.558057,3.16819 2.996569,0 5.145812,-1.04376 6.447646,-3.13085 1.326355,-2.1125 1.989553,-5.24349 1.989566,-9.39367 -1.3e-5,-4.12518 -0.663211,-7.21882 -1.989566,-9.28134 -1.326452,-2.06248 -3.500175,-3.09404 -6.521239,-3.09404 -2.996639,0 -5.158067,1.03156 -6.484464,3.09404 -1.326328,2.03767 -1.989428,5.13131 -1.989401,9.28134 m 28.479654,0 c -5.5e-5,6.78399 -1.768454,12.08955 -5.305378,15.91652 -3.537089,3.82711 -8.46154,5.74023 -14.774116,5.74023 -3.95439,0 -7.442339,-0.86937 -10.463431,-2.60896 -3.021132,-1.76473 -5.342139,-4.28665 -6.963519,-7.56703 -1.621019,-3.2801 -2.431556,-7.10706 -2.431556,-11.48076 0,-6.80857 1.756062,-12.10174 5.268519,-15.87915 3.512471,-3.77718 8.449522,-5.66586 14.810933,-5.66586 3.95464,0 7.442243,0.86968 10.463709,2.60929 3.021063,1.73964 5.342112,4.2369 6.96327,7.4925 1.620977,3.25534 2.431514,7.06966 2.431569,11.44322"
         style="font-size:28px;font-style:normal;font-variant:normal;font-weight:bold;font-stretch:normal;text-align:start;line-height:125%;letter-spacing:0px;word-spacing:0px;writing-mode:lr-tb;text-anchor:start;fill:#ea5480;fill-opacity:1;stroke:none;display:inline;font-family:Open Sans;-inkscape-font-specification:Open Sans Bold"
         id="path4292"
         inkscape:connector-curvature="0" />
      <path
         inkscape:export-ydpi="300"
         inkscape:export-xdpi="300"
         inkscape:export-filename="/Users/lucacorsato/Documents/o{s}d/o{s}d_semplice.png"
         inkscape:connector-curvature="0"
         id="path4296"
         style="font-size:28px;font-style:normal;font-variant:normal;font-weight:bold;font-stretch:normal;text-align:start;line-height:125%;letter-spacing:0px;word-spacing:0px;writing-mode:lr-tb;text-anchor:start;fill:#002fa7;fill-opacity:1;stroke:none;display:inline;font-family:Open Sans;-inkscape-font-specification:Open Sans Bold"
         d="m 161.1232,974.12756 c -4.83879,0 -8.6458,-1.90103 -11.42136,-5.70296 -2.75098,-3.80192 -4.12631,-9.07006 -4.12631,-15.80441 0,-6.83361 1.39982,-12.15148 4.19999,-15.95326 2.82459,-3.82704 6.70529,-5.74054 11.64235,-5.74054 5.18247,0 9.13709,2.03775 11.86328,6.11302 l 0.36855,0 c -0.56495,-3.10611 -0.84733,-5.87706 -0.84728,-8.31207 l 0,-13.34454 11.27379,0 0,57.99951 -8.62128,0 -2.17378,-5.40474 -0.47873,0 c -2.55461,4.1 -6.44755,6.14999 -11.67922,6.14999 m 3.9421,-9.05756 c 2.8737,0 4.97377,-0.84494 6.30017,-2.53439 1.35072,-1.69001 2.08756,-4.56037 2.21061,-8.61081 l 0,-1.23006 c -3e-5,-4.47276 -0.68774,-7.67826 -2.06332,-9.61692 -1.3509,-1.93799 -3.56145,-2.90746 -6.63157,-2.90746 -2.50552,0 -4.45804,1.08109 -5.85805,3.24316 -1.37549,2.13704 -2.06323,5.25564 -2.06322,9.35564 -3e-5,4.10042 0.70005,7.18166 2.10002,9.2443 1.40004,2.03778 3.40169,3.05654 6.00533,3.05654" />
      <g
         id="g3781">
        <path
           inkscape:connector-curvature="0"
           id="path4298"
           style="font-size:56px;font-style:normal;font-variant:normal;font-weight:normal;font-stretch:normal;text-align:start;line-height:125%;letter-spacing:0px;word-spacing:0px;writing-mode:lr-tb;text-anchor:start;fill:#ea5480;fill-opacity:1;stroke:none;display:inline;font-family:Liberation Serif;-inkscape-font-specification:Liberation Serif"
           d="m 90.606059,1015.7074 c -6.189514,-3e-4 -10.954632,-1.9137 -14.294854,-5.7406 -3.29147,-3.827 -4.937073,-9.2191 -4.937045,-16.17702 l 0,-21.99203 c -2.8e-5,-5.81472 -1.301817,-10.1638 -3.905173,-13.04637 -2.554619,-2.93215 -6.533523,-4.49762 -11.937309,-4.69643 l 0,-3.35461 c 10.561775,-0.19923 15.842454,-6.06337 15.842482,-17.59367 l 0,-21.91769 c -2.8e-5,-7.00752 1.596477,-12.39964 4.789472,-16.17703 3.193204,-3.77705 8.007115,-5.66575 14.442427,-5.66575 l 9.947711,0 0,3.50401 -4.568738,0 c -4.470333,0 -7.663245,1.36676 -9.579056,4.1 -1.866616,2.68396 -2.799944,6.65973 -2.799917,11.92791 l 0,24.60111 c -2.7e-5,4.72169 -1.277337,8.79704 -3.831803,12.22634 -2.554327,3.37946 -5.993092,5.54122 -10.316018,6.48584 l 0,0.22351 c 4.372052,1.04347 7.81079,3.25507 10.316018,6.63481 2.554466,3.32962 3.831776,7.40504 3.831803,12.22614 l 0,24.89933 c -2.7e-5,5.2681 0.933301,9.244 2.799917,11.9281 1.915811,2.733 5.108723,4.0998 9.579056,4.0998 l 4.568738,0 0,3.504 -9.947711,0"
           inkscape:export-filename="/Users/lucacorsato/Documents/o{s}d/o{s}d_semplice.png"
           inkscape:export-xdpi="300"
           inkscape:export-ydpi="300" />
        <path
           inkscape:connector-curvature="0"
           id="path4300"
           style="font-size:56px;font-style:normal;font-variant:normal;font-weight:normal;font-stretch:normal;text-align:start;line-height:125%;letter-spacing:0px;word-spacing:0px;writing-mode:lr-tb;text-anchor:start;fill:#002fa7;fill-opacity:1;stroke:none;display:inline;font-family:Liberation Serif;-inkscape-font-specification:Liberation Serif"
           d="m 100.55377,1015.7074 0,-3.5043 4.5684,0 c 4.47024,0 7.63862,-1.3668 9.50547,-4.0998 1.91567,-2.6841 2.87378,-6.66 2.87381,-11.9281 l 0,-24.89933 c -3e-5,-4.82096 1.25239,-8.89624 3.75791,-12.22614 2.50518,-3.37974 5.96842,-5.59134 10.38961,-6.63481 l 0,-0.22351 c -4.32291,-0.94434 -7.76172,-3.13123 -10.31595,-6.56025 -2.55461,-3.42945 -3.8316,-7.47974 -3.83157,-12.15188 l 0,-24.6011 c -3e-5,-5.26818 -0.95814,-9.24395 -2.87381,-11.92792 -1.86685,-2.73323 -5.03523,-4.1 -9.50547,-4.1 l -4.5684,0 0,-3.50401 10.02108,0 c 6.38609,3e-4 11.17585,1.889 14.36881,5.66604 3.19285,3.7771 4.7893,9.16949 4.78936,16.17674 l 0,21.9177 c -6e-5,11.53024 5.28104,17.39467 15.84251,17.59361 l 0,3.35461 c -5.30534,0.19909 -9.28449,1.73929 -11.93692,4.62201 -2.60375,2.88272 -3.90565,7.25622 -3.90559,13.12079 l 0,21.99203 c -6e-5,6.90832 -1.67015,12.27582 -5.01038,16.10252 -3.29142,3.8766 -8.00717,5.8151 -14.14779,5.8151 l -10.02108,0"
           inkscape:export-filename="/Users/lucacorsato/Documents/o{s}d/o{s}d_semplice.png"
           inkscape:export-xdpi="300"
           inkscape:export-ydpi="300" />
      </g>
      <text
         sodipodi:linespacing="125%"
         id="text3777"
         y="971.83655"
         x="82.745148"
         style="font-size:70.68162537px;font-style:normal;font-variant:normal;font-weight:bold;font-stretch:normal;text-align:start;line-height:125%;letter-spacing:0px;word-spacing:0px;writing-mode:lr-tb;text-anchor:start;fill:#1a1a1a;fill-opacity:1;stroke:none;font-family:Open Sans;-inkscape-font-specification:Open Sans Bold"
         xml:space="preserve"><tspan
           y="971.83655"
           x="82.745148"
           id="tspan3779"
           sodipodi:role="line">s</tspan></text>
    </g>
  </g>
</svg>
