<?xml version="1.0" encoding="UTF-8" standalone="no"?>
<!-- Created with Inkscape (http://www.inkscape.org/) -->

<svg
   xmlns:osb="http://www.openswatchbook.org/uri/2009/osb"
   xmlns:dc="http://purl.org/dc/elements/1.1/"
   xmlns:cc="http://creativecommons.org/ns#"
   xmlns:rdf="http://www.w3.org/1999/02/22-rdf-syntax-ns#"
   xmlns:svg="http://www.w3.org/2000/svg"
   xmlns="http://www.w3.org/2000/svg"
   xmlns:xlink="http://www.w3.org/1999/xlink"
   xmlns:sodipodi="http://sodipodi.sourceforge.net/DTD/sodipodi-0.dtd"
   xmlns:inkscape="http://www.inkscape.org/namespaces/inkscape"
   width="71.260002"
   height="200"
   id="svg2"
   version="1.1"
   inkscape:version="0.48.5 r10040"
   sodipodi:docname="osd_sfondo.svg"
   inkscape:export-filename="/Users/lucacorsato/Documents/osd/website/osdfront/assets/img/osd_simple_200.png"
   inkscape:export-xdpi="320"
   inkscape:export-ydpi="320">
  <defs
     id="defs4">
    <linearGradient
       id="linearGradient4444"
       osb:paint="solid">
      <stop
         style="stop-color:#002fa7;stop-opacity:1;"
         offset="0"
         id="stop4446" />
    </linearGradient>
    <linearGradient
       inkscape:collect="always"
       xlink:href="#linearGradient4444"
       id="linearGradient4448"
       x1="1481.6096"
       y1="393.59521"
       x2="3401.6096"
       y2="393.59521"
       gradientUnits="userSpaceOnUse" />
    <linearGradient
       inkscape:collect="always"
       xlink:href="#linearGradient4444"
       id="linearGradient4452"
       gradientUnits="userSpaceOnUse"
       x1="1481.6096"
       y1="393.59521"
       x2="3401.6096"
       y2="393.59521"
       gradientTransform="translate(-1761.6116,2283.4524)" />
  </defs>
  <sodipodi:namedview
     id="base"
     pagecolor="#ffffff"
     bordercolor="#666666"
     borderopacity="1.0"
     inkscape:pageopacity="0.0"
     inkscape:pageshadow="2"
     inkscape:zoom="3.225"
     inkscape:cx="81.240307"
     inkscape:cy="100"
     inkscape:document-units="px"
     inkscape:current-layer="layer11"
     showgrid="false"
     inkscape:window-width="1440"
     inkscape:window-height="851"
     inkscape:window-x="0"
     inkscape:window-y="0"
     inkscape:window-maximized="1" />
  <metadata
     id="metadata7">
    <rdf:RDF>
      <cc:Work
         rdf:about="">
        <dc:format>image/svg+xml</dc:format>
        <dc:type
           rdf:resource="http://purl.org/dc/dcmitype/StillImage" />
        <dc:title></dc:title>
      </cc:Work>
    </rdf:RDF>
  </metadata>
  <g
     inkscape:groupmode="layer"
     id="layer1"
     inkscape:label="sfondo"
     transform="translate(0,162.5)"
     style="display:inline" />
  <g
     inkscape:groupmode="layer"
     id="layer11"
     inkscape:label="logo"
     style="display:inline"
     transform="translate(0,-852.3622)">
    <path
       inkscape:connector-curvature="0"
       id="path4298"
       style="font-size:56px;font-style:normal;font-variant:normal;font-weight:normal;font-stretch:normal;text-align:start;line-height:125%;letter-spacing:0px;word-spacing:0px;writing-mode:lr-tb;text-anchor:start;fill:#ea5480;fill-opacity:1;stroke:none;display:inline;font-family:Liberation Serif;-inkscape-font-specification:Liberation Serif"
       d="m 55.514191,1052.3622 c -9.796491,-5e-4 -17.338511,-3.0289 -22.625268,-9.086 -5.209595,-6.0571 -7.814182,-14.5916 -7.814138,-25.6043 l 0,-34.80797 c -4.4e-5,-9.20328 -2.060459,-16.08681 -6.180936,-20.64922 C 14.85051,957.57382 8.5528748,955.09607 0,954.7814 l 0,-5.30953 c 16.716714,-0.31533 25.074741,-9.59683 25.074785,-27.84648 l 0,-34.69037 c -4.4e-5,-11.09118 2.526834,-19.6256 7.580566,-25.60429 5.054063,-5.97814 12.67331,-8.9675 22.85884,-8.9675 l 15.744809,0 0,5.546 -7.231203,0 c -7.075453,0 -12.129052,2.16325 -15.161313,6.4893 -2.954398,4.24805 -4.431628,10.54073 -4.431586,18.87896 l 0,38.93757 c -4.2e-5,7.47327 -2.021714,13.92357 -6.064809,19.35131 -4.042876,5.34886 -9.485603,8.77041 -16.327742,10.26551 l 0,0.35376 c 6.919892,1.65155 12.362577,5.15198 16.327742,10.50127 4.043095,5.27 6.064767,11.72039 6.064809,19.35101 l 0,39.40958 c -4.2e-5,8.3381 1.477188,14.631 4.431586,18.8793 3.032261,4.3256 8.08586,6.4889 15.161313,6.4889 l 7.231203,0 0,5.546 -15.744809,0"
       inkscape:export-filename="/Users/lucacorsato/Documents/o{s}d/o{s}d_semplice.png"
       inkscape:export-xdpi="300"
       inkscape:export-ydpi="300" />
  </g>
</svg>
