<?xml version="1.0" encoding="UTF-8" standalone="no"?>
<!-- Created with Inkscape (http://www.inkscape.org/) -->

<svg
   xmlns:osb="http://www.openswatchbook.org/uri/2009/osb"
   xmlns:dc="http://purl.org/dc/elements/1.1/"
   xmlns:cc="http://creativecommons.org/ns#"
   xmlns:rdf="http://www.w3.org/1999/02/22-rdf-syntax-ns#"
   xmlns:svg="http://www.w3.org/2000/svg"
   xmlns="http://www.w3.org/2000/svg"
   xmlns:xlink="http://www.w3.org/1999/xlink"
   xmlns:sodipodi="http://sodipodi.sourceforge.net/DTD/sodipodi-0.dtd"
   xmlns:inkscape="http://www.inkscape.org/namespaces/inkscape"
   id="svg3572"
   version="1.1"
   inkscape:version="0.48.2 r9819"
   width="120"
   height="120"
   sodipodi:docname="sensjournalist.svg"
   inkscape:export-filename="/Users/lucacorsato/Documents/o{s}d/sensjournalist.png"
   inkscape:export-xdpi="320"
   inkscape:export-ydpi="320">
  <metadata
     id="metadata3578">
    <rdf:RDF>
      <cc:Work
         rdf:about="">
        <dc:format>image/svg+xml</dc:format>
        <dc:type
           rdf:resource="http://purl.org/dc/dcmitype/StillImage" />
        <dc:title></dc:title>
      </cc:Work>
    </rdf:RDF>
  </metadata>
  <defs
     id="defs3576">
    <linearGradient
       id="linearGradient4412">
      <stop
         style="stop-color:#da70df;stop-opacity:1;"
         offset="0"
         id="stop4414" />
      <stop
         style="stop-color:#da70df;stop-opacity:0;"
         offset="1"
         id="stop4416" />
    </linearGradient>
    <linearGradient
       id="linearGradient5812"
       osb:paint="solid">
      <stop
         style="stop-color:#0000ff;stop-opacity:0.20353982;"
         offset="0"
         id="stop5814" />
    </linearGradient>
    <linearGradient
       inkscape:collect="always"
       xlink:href="#linearGradient5812"
       id="linearGradient6087"
       gradientUnits="userSpaceOnUse"
       x1="-108.79462"
       y1="199.46829"
       x2="-94.842339"
       y2="199.46829" />
    <linearGradient
       inkscape:collect="always"
       xlink:href="#linearGradient5812"
       id="linearGradient6089"
       gradientUnits="userSpaceOnUse"
       x1="-108.79462"
       y1="199.46829"
       x2="-94.842339"
       y2="199.46829" />
    <linearGradient
       y2="199.46829"
       x2="-94.842339"
       y1="199.46829"
       x1="-108.79462"
       gradientUnits="userSpaceOnUse"
       id="linearGradient6089-5"
       xlink:href="#linearGradient5812-3"
       inkscape:collect="always" />
    <linearGradient
       y2="199.46829"
       x2="-94.842339"
       y1="199.46829"
       x1="-108.79462"
       gradientUnits="userSpaceOnUse"
       id="linearGradient6087-0"
       xlink:href="#linearGradient5812-3"
       inkscape:collect="always" />
    <linearGradient
       osb:paint="solid"
       id="linearGradient5812-3">
      <stop
         id="stop5814-2"
         offset="0"
         style="stop-color:#0000ff;stop-opacity:0.20353982;" />
    </linearGradient>
  </defs>
  <sodipodi:namedview
     pagecolor="#ffffff"
     bordercolor="#666666"
     borderopacity="1"
     objecttolerance="10"
     gridtolerance="10"
     guidetolerance="10"
     inkscape:pageopacity="0"
     inkscape:pageshadow="2"
     inkscape:window-width="1440"
     inkscape:window-height="852"
     id="namedview3574"
     showgrid="false"
     inkscape:zoom="2.56"
     inkscape:cx="43.382339"
     inkscape:cy="117.7387"
     inkscape:window-x="216"
     inkscape:window-y="750"
     inkscape:window-maximized="0"
     inkscape:current-layer="layer1"
     fit-margin-left="1"
     fit-margin-top="1"
     fit-margin-bottom="1"
     fit-margin-right="1" />
  <g
     inkscape:groupmode="layer"
     id="layer2"
     inkscape:label="sfondo"
     transform="translate(0,-280)"
     sodipodi:insensitive="true">
    <path
       sodipodi:type="arc"
       style="fill:#ed9121;fill-opacity:1;fill-rule:evenodd;stroke:none"
       id="path4410"
       sodipodi:cx="-67.126793"
       sodipodi:cy="188.83031"
       sodipodi:rx="237.74072"
       sodipodi:ry="229.34987"
       d="m 170.61393,188.83031 a 237.74072,229.34987 0 1 1 -475.48145,0 237.74072,229.34987 0 1 1 475.48145,0 z"
       transform="matrix(0.25237578,0,0,0.26160906,76.941174,290.60028)" />
  </g>
  <g
     inkscape:groupmode="layer"
     id="layer1"
     inkscape:label="grafo"
     style="display:inline"
     transform="translate(0,-291.09976)">
    <path
       sodipodi:type="arc"
       style="fill:#ffffff;fill-opacity:1;stroke:#ffffff;stroke-width:1.09099996000000021;stroke-miterlimit:4;stroke-opacity:1;stroke-dasharray:none;stroke-dashoffset:0"
       id="path3588"
       sodipodi:cx="-101.81848"
       sodipodi:cy="199.46829"
       sodipodi:rx="6.4306407"
       sodipodi:ry="6.9665275"
       d="m -95.387841,199.46829 a 6.4306407,6.9665275 0 1 1 -12.861279,0 6.4306407,6.9665275 0 1 1 12.861279,0 z"
       transform="matrix(0.28763207,0,0,0.26407725,52.036706,290.06336)" />
    <path
       transform="matrix(0.28763207,0,0,0.26407725,53.482324,280.01745)"
       d="m -95.387841,199.46829 a 6.4306407,6.9665275 0 1 1 -12.861279,0 6.4306407,6.9665275 0 1 1 12.861279,0 z"
       sodipodi:ry="6.9665275"
       sodipodi:rx="6.4306407"
       sodipodi:cy="199.46829"
       sodipodi:cx="-101.81848"
       id="path5818"
       style="fill:#ffffff;fill-opacity:1;stroke:#ffffff;stroke-width:1.09099996000000021;stroke-miterlimit:4;stroke-opacity:1;stroke-dasharray:none;stroke-dashoffset:0"
       sodipodi:type="arc" />
    <path
       sodipodi:type="arc"
       style="fill:#ffffff;fill-opacity:1;stroke:#ffffff;stroke-width:1.09099996000000021;stroke-miterlimit:4;stroke-opacity:1;stroke-dasharray:none;stroke-dashoffset:0"
       id="path5822"
       sodipodi:cx="-101.81848"
       sodipodi:cy="199.46829"
       sodipodi:rx="6.4306407"
       sodipodi:ry="6.9665275"
       d="m -95.387841,199.46829 a 6.4306407,6.9665275 0 1 1 -12.861279,0 6.4306407,6.9665275 0 1 1 12.861279,0 z"
       transform="matrix(0.28763207,0,0,0.26407725,53.639469,272.00498)" />
    <path
       transform="matrix(0.28763207,0,0,0.26407725,60.008167,268.82015)"
       d="m -95.387841,199.46829 a 6.4306407,6.9665275 0 1 1 -12.861279,0 6.4306407,6.9665275 0 1 1 12.861279,0 z"
       sodipodi:ry="6.9665275"
       sodipodi:rx="6.4306407"
       sodipodi:cy="199.46829"
       sodipodi:cx="-101.81848"
       id="path5826"
       style="fill:#ffffff;fill-opacity:1;stroke:#ffffff;stroke-width:1.09099996000000021;stroke-miterlimit:4;stroke-opacity:1;stroke-dasharray:none;stroke-dashoffset:0"
       sodipodi:type="arc" />
    <path
       sodipodi:type="arc"
       style="fill:#ffffff;fill-opacity:1;stroke:#ffffff;stroke-width:1.09099996;stroke-miterlimit:4;stroke-opacity:1;stroke-dasharray:none;stroke-dashoffset:0"
       id="path5830"
       sodipodi:cx="-101.81848"
       sodipodi:cy="199.46829"
       sodipodi:rx="6.4306407"
       sodipodi:ry="6.9665275"
       d="m -95.387841,199.46829 a 6.4306407,6.9665275 0 1 1 -12.861279,0 6.4306407,6.9665275 0 1 1 12.861279,0 z"
       transform="matrix(0.28763207,0,0,0.26407725,76.010568,260.84626)" />
    <path
       transform="matrix(0.28763207,0,0,0.26407725,70.401803,282.2462)"
       d="m -95.387841,199.46829 a 6.4306407,6.9665275 0 1 1 -12.861279,0 6.4306407,6.9665275 0 1 1 12.861279,0 z"
       sodipodi:ry="6.9665275"
       sodipodi:rx="6.4306407"
       sodipodi:cy="199.46829"
       sodipodi:cx="-101.81848"
       id="path5834"
       style="fill:#ffffff;fill-opacity:1;stroke:#ffffff;stroke-width:1.09099996000000021;stroke-miterlimit:4;stroke-opacity:1;stroke-dasharray:none;stroke-dashoffset:0"
       sodipodi:type="arc" />
    <path
       sodipodi:type="arc"
       style="fill:#ffffff;fill-opacity:1;stroke:#ffffff;stroke-width:1.09099995999999999;stroke-miterlimit:4;stroke-opacity:1;stroke-dasharray:none;stroke-dashoffset:0"
       id="path5838"
       sodipodi:cx="-101.81848"
       sodipodi:cy="199.46829"
       sodipodi:rx="6.4306407"
       sodipodi:ry="6.9665275"
       d="m -95.387841,199.46829 a 6.4306407,6.9665275 0 1 1 -12.861279,0 6.4306407,6.9665275 0 1 1 12.861279,0 z"
       transform="matrix(0.28763207,0,0,0.26407725,67.881965,290.29727)" />
    <path
       transform="matrix(0.28763207,0,0,0.26407725,78.075634,276.94212)"
       d="m -95.387841,199.46829 a 6.4306407,6.9665275 0 1 1 -12.861279,0 6.4306407,6.9665275 0 1 1 12.861279,0 z"
       sodipodi:ry="6.9665275"
       sodipodi:rx="6.4306407"
       sodipodi:cy="199.46829"
       sodipodi:cx="-101.81848"
       id="path5842"
       style="fill:#ffffff;fill-opacity:1;stroke:#ffffff;stroke-width:1.09099996;stroke-miterlimit:4;stroke-opacity:1;stroke-dasharray:none;stroke-dashoffset:0"
       sodipodi:type="arc" />
    <path
       sodipodi:type="arc"
       style="fill:#ffffff;fill-opacity:1;stroke:#ffffff;stroke-width:1.09099996;stroke-miterlimit:4;stroke-opacity:1;stroke-dasharray:none;stroke-dashoffset:0"
       id="path5846"
       sodipodi:cx="-101.81848"
       sodipodi:cy="199.46829"
       sodipodi:rx="6.4306407"
       sodipodi:ry="6.9665275"
       d="m -95.387841,199.46829 a 6.4306407,6.9665275 0 1 1 -12.861279,0 6.4306407,6.9665275 0 1 1 12.861279,0 z"
       transform="matrix(0.28763207,0,0,0.26407725,77.868474,269.22448)" />
    <path
       transform="matrix(0.28763207,0,0,0.26407725,83.4296,261.05342)"
       d="m -95.387841,199.46829 a 6.4306407,6.9665275 0 1 1 -12.861279,0 6.4306407,6.9665275 0 1 1 12.861279,0 z"
       sodipodi:ry="6.9665275"
       sodipodi:rx="6.4306407"
       sodipodi:cy="199.46829"
       sodipodi:cx="-101.81848"
       id="path5850"
       style="fill:#ffffff;fill-opacity:1;stroke:#ffffff;stroke-width:1.09099996;stroke-miterlimit:4;stroke-opacity:1;stroke-dasharray:none;stroke-dashoffset:0"
       sodipodi:type="arc" />
    <path
       sodipodi:type="arc"
       style="fill:#ffffff;fill-opacity:1;stroke:#ffffff;stroke-width:1.09099996;stroke-miterlimit:4;stroke-opacity:1;stroke-dasharray:none;stroke-dashoffset:0"
       id="path5854"
       sodipodi:cx="-101.81848"
       sodipodi:cy="199.46829"
       sodipodi:rx="6.4306407"
       sodipodi:ry="6.9665275"
       d="m -95.387841,199.46829 a 6.4306407,6.9665275 0 1 1 -12.861279,0 6.4306407,6.9665275 0 1 1 12.861279,0 z"
       transform="matrix(0.28763207,0,0,0.26407725,87.641432,248.08076)" />
    <path
       transform="matrix(0.28763207,0,0,0.26407725,81.047961,290.04475)"
       d="m -95.387841,199.46829 a 6.4306407,6.9665275 0 1 1 -12.861279,0 6.4306407,6.9665275 0 1 1 12.861279,0 z"
       sodipodi:ry="6.9665275"
       sodipodi:rx="6.4306407"
       sodipodi:cy="199.46829"
       sodipodi:cx="-101.81848"
       id="path5858"
       style="fill:#ffffff;fill-opacity:1;stroke:#ffffff;stroke-width:1.09099996;stroke-miterlimit:4;stroke-opacity:1;stroke-dasharray:none;stroke-dashoffset:0"
       sodipodi:type="arc" />
    <path
       sodipodi:type="arc"
       style="fill:#ffffff;fill-opacity:1;stroke:#ffffff;stroke-width:1.09099996;stroke-miterlimit:4;stroke-opacity:1;stroke-dasharray:none;stroke-dashoffset:0"
       id="path5862"
       sodipodi:cx="-101.81848"
       sodipodi:cy="199.46829"
       sodipodi:rx="6.4306407"
       sodipodi:ry="6.9665275"
       d="m -95.387841,199.46829 a 6.4306407,6.9665275 0 1 1 -12.861279,0 6.4306407,6.9665275 0 1 1 12.861279,0 z"
       transform="matrix(0.28763207,0,0,0.26407725,88.733641,298.502)" />
    <path
       transform="matrix(0.28763207,0,0,0.26407725,96.774154,290.37004)"
       d="m -95.387841,199.46829 a 6.4306407,6.9665275 0 1 1 -12.861279,0 6.4306407,6.9665275 0 1 1 12.861279,0 z"
       sodipodi:ry="6.9665275"
       sodipodi:rx="6.4306407"
       sodipodi:cy="199.46829"
       sodipodi:cx="-101.81848"
       id="path5866"
       style="fill:#ffffff;fill-opacity:1;stroke:#ffffff;stroke-width:1.09099996;stroke-miterlimit:4;stroke-opacity:1;stroke-dasharray:none;stroke-dashoffset:0"
       sodipodi:type="arc" />
    <path
       sodipodi:type="arc"
       style="fill:#ffffff;fill-opacity:1;stroke:#ffffff;stroke-width:1.09099996;stroke-miterlimit:4;stroke-opacity:1;stroke-dasharray:none;stroke-dashoffset:0"
       id="path5870"
       sodipodi:cx="-101.81848"
       sodipodi:cy="199.46829"
       sodipodi:rx="6.4306407"
       sodipodi:ry="6.9665275"
       d="m -95.387841,199.46829 a 6.4306407,6.9665275 0 1 1 -12.861279,0 6.4306407,6.9665275 0 1 1 12.861279,0 z"
       transform="matrix(0.28763207,0,0,0.26407725,98.898708,276.93214)" />
    <path
       transform="matrix(0.28763207,0,0,0.26407725,98.967762,266.16218)"
       d="m -95.387841,199.46829 a 6.4306407,6.9665275 0 1 1 -12.861279,0 6.4306407,6.9665275 0 1 1 12.861279,0 z"
       sodipodi:ry="6.9665275"
       sodipodi:rx="6.4306407"
       sodipodi:cy="199.46829"
       sodipodi:cx="-101.81848"
       id="path5874"
       style="fill:#ffffff;fill-opacity:1;stroke:#ffffff;stroke-width:1.09099996;stroke-miterlimit:4;stroke-opacity:1;stroke-dasharray:none;stroke-dashoffset:0"
       sodipodi:type="arc" />
    <path
       sodipodi:type="arc"
       style="fill:#ffffff;fill-opacity:1;stroke:#ffffff;stroke-width:1.09099996;stroke-miterlimit:4;stroke-opacity:1;stroke-dasharray:none;stroke-dashoffset:0"
       id="path5878"
       sodipodi:cx="-101.81848"
       sodipodi:cy="199.46829"
       sodipodi:rx="6.4306407"
       sodipodi:ry="6.9665275"
       d="m -95.387841,199.46829 a 6.4306407,6.9665275 0 1 1 -12.861279,0 6.4306407,6.9665275 0 1 1 12.861279,0 z"
       transform="matrix(0.28763207,0,0,0.26407725,114.76301,263.56329)" />
    <path
       transform="matrix(0.28763207,0,0,0.26407725,120.88613,266.30029)"
       d="m -95.387841,199.46829 a 6.4306407,6.9665275 0 1 1 -12.861279,0 6.4306407,6.9665275 0 1 1 12.861279,0 z"
       sodipodi:ry="6.9665275"
       sodipodi:rx="6.4306407"
       sodipodi:cy="199.46829"
       sodipodi:cx="-101.81848"
       id="path5882"
       style="fill:#ffffff;fill-opacity:1;stroke:#ffffff;stroke-width:1.09099996;stroke-miterlimit:4;stroke-opacity:1;stroke-dasharray:none;stroke-dashoffset:0"
       sodipodi:type="arc" />
    <path
       sodipodi:type="arc"
       style="fill:#ffffff;fill-opacity:1;stroke:#ffffff;stroke-width:1.09099996;stroke-miterlimit:4;stroke-opacity:1;stroke-dasharray:none;stroke-dashoffset:0"
       id="path5886"
       sodipodi:cx="-101.81848"
       sodipodi:cy="199.46829"
       sodipodi:rx="6.4306407"
       sodipodi:ry="6.9665275"
       d="m -95.387841,199.46829 a 6.4306407,6.9665275 0 1 1 -12.861279,0 6.4306407,6.9665275 0 1 1 12.861279,0 z"
       transform="matrix(0.28763207,0,0,0.26407725,107.40347,279.66913)" />
    <path
       sodipodi:type="arc"
       style="fill:#ffffff;fill-opacity:1;stroke:#ffffff;stroke-width:1.09099996;stroke-miterlimit:4;stroke-opacity:1;stroke-dasharray:none;stroke-dashoffset:0"
       id="path5894"
       sodipodi:cx="-101.81848"
       sodipodi:cy="199.46829"
       sodipodi:rx="6.4306407"
       sodipodi:ry="6.9665275"
       d="m -95.387841,199.46829 a 6.4306407,6.9665275 0 1 1 -12.861279,0 6.4306407,6.9665275 0 1 1 12.861279,0 z"
       transform="matrix(0.28763207,0,0,0.26407725,112.77656,288.06733)" />
    <path
       sodipodi:type="arc"
       style="fill:#ffffff;fill-opacity:1;stroke:#ffffff;stroke-width:1.09099996;stroke-miterlimit:4;stroke-opacity:1;stroke-dasharray:none;stroke-dashoffset:0"
       id="path5898"
       sodipodi:cx="-101.81848"
       sodipodi:cy="199.46829"
       sodipodi:rx="6.4306407"
       sodipodi:ry="6.9665275"
       d="m -95.387841,199.46829 a 6.4306407,6.9665275 0 1 1 -12.861279,0 6.4306407,6.9665275 0 1 1 12.861279,0 z"
       transform="matrix(0.28763207,0,0,0.26407725,129.1338,281.99182)" />
    <path
       transform="matrix(0.28763207,0,0,0.26407725,133.66868,289.1696)"
       d="m -95.387841,199.46829 a 6.4306407,6.9665275 0 1 1 -12.861279,0 6.4306407,6.9665275 0 1 1 12.861279,0 z"
       sodipodi:ry="6.9665275"
       sodipodi:rx="6.4306407"
       sodipodi:cy="199.46829"
       sodipodi:cx="-101.81848"
       id="path5902"
       style="fill:#ffffff;fill-opacity:1;stroke:#ffffff;stroke-width:1.09099996;stroke-miterlimit:4;stroke-opacity:1;stroke-dasharray:none;stroke-dashoffset:0"
       sodipodi:type="arc" />
    <path
       sodipodi:type="arc"
       style="fill:#ffffff;fill-opacity:1;stroke:#ffffff;stroke-width:1.09099996;stroke-miterlimit:4;stroke-opacity:1;stroke-dasharray:none;stroke-dashoffset:0"
       id="path5906"
       sodipodi:cx="-101.81848"
       sodipodi:cy="199.46829"
       sodipodi:rx="6.4306407"
       sodipodi:ry="6.9665275"
       d="m -95.387841,199.46829 a 6.4306407,6.9665275 0 1 1 -12.861279,0 6.4306407,6.9665275 0 1 1 12.861279,0 z"
       transform="matrix(0.28763207,0,0,0.26407725,144.23852,290.58718)" />
    <path
       transform="matrix(0.28763207,0,0,0.26407725,123.29646,300.75562)"
       d="m -95.387841,199.46829 a 6.4306407,6.9665275 0 1 1 -12.861279,0 6.4306407,6.9665275 0 1 1 12.861279,0 z"
       sodipodi:ry="6.9665275"
       sodipodi:rx="6.4306407"
       sodipodi:cy="199.46829"
       sodipodi:cx="-101.81848"
       id="path5910"
       style="fill:#ffffff;fill-opacity:1;stroke:#ffffff;stroke-width:1.09099996;stroke-miterlimit:4;stroke-opacity:1;stroke-dasharray:none;stroke-dashoffset:0"
       sodipodi:type="arc" />
    <path
       sodipodi:type="arc"
       style="fill:#ffffff;fill-opacity:1;stroke:#ffffff;stroke-width:1.09099996;stroke-miterlimit:4;stroke-opacity:1;stroke-dasharray:none;stroke-dashoffset:0"
       id="path5914"
       sodipodi:cx="-101.81848"
       sodipodi:cy="199.46829"
       sodipodi:rx="6.4306407"
       sodipodi:ry="6.9665275"
       d="m -95.387841,199.46829 a 6.4306407,6.9665275 0 1 1 -12.861279,0 6.4306407,6.9665275 0 1 1 12.861279,0 z"
       transform="matrix(0.28763207,0,0,0.26407725,110.22812,306.08154)" />
    <path
       transform="matrix(0.28763207,0,0,0.26407725,96.685973,306.35775)"
       d="m -95.387841,199.46829 a 6.4306407,6.9665275 0 1 1 -12.861279,0 6.4306407,6.9665275 0 1 1 12.861279,0 z"
       sodipodi:ry="6.9665275"
       sodipodi:rx="6.4306407"
       sodipodi:cy="199.46829"
       sodipodi:cx="-101.81848"
       id="path5918"
       style="fill:#ffffff;fill-opacity:1;stroke:#ffffff;stroke-width:1.09099996;stroke-miterlimit:4;stroke-opacity:1;stroke-dasharray:none;stroke-dashoffset:0"
       sodipodi:type="arc" />
    <path
       sodipodi:type="arc"
       style="fill:#ffffff;fill-opacity:1;stroke:#ffffff;stroke-width:1.09099996;stroke-miterlimit:4;stroke-opacity:1;stroke-dasharray:none;stroke-dashoffset:0"
       id="path5922"
       sodipodi:cx="-101.81848"
       sodipodi:cy="199.46829"
       sodipodi:rx="6.4306407"
       sodipodi:ry="6.9665275"
       d="m -95.387841,199.46829 a 6.4306407,6.9665275 0 1 1 -12.861279,0 6.4306407,6.9665275 0 1 1 12.861279,0 z"
       transform="matrix(0.28763207,0,0,0.26407725,99.174929,321.96025)" />
    <path
       transform="matrix(0.28763207,0,0,0.26407725,107.89641,316.30905)"
       d="m -95.387841,199.46829 a 6.4306407,6.9665275 0 1 1 -12.861279,0 6.4306407,6.9665275 0 1 1 12.861279,0 z"
       sodipodi:ry="6.9665275"
       sodipodi:rx="6.4306407"
       sodipodi:cy="199.46829"
       sodipodi:cx="-101.81848"
       id="path5926"
       style="fill:#ffffff;fill-opacity:1;stroke:#ffffff;stroke-width:1.09099996;stroke-miterlimit:4;stroke-opacity:1;stroke-dasharray:none;stroke-dashoffset:0"
       sodipodi:type="arc" />
    <path
       sodipodi:type="arc"
       style="fill:#ffffff;fill-opacity:1;stroke:#ffffff;stroke-width:1.09099996;stroke-miterlimit:4;stroke-opacity:1;stroke-dasharray:none;stroke-dashoffset:0"
       id="path5930"
       sodipodi:cx="-101.81848"
       sodipodi:cy="199.46829"
       sodipodi:rx="6.4306407"
       sodipodi:ry="6.9665275"
       d="m -95.387841,199.46829 a 6.4306407,6.9665275 0 1 1 -12.861279,0 6.4306407,6.9665275 0 1 1 12.861279,0 z"
       transform="matrix(0.28763207,0,0,0.26407725,118.54485,319.02607)" />
    <path
       transform="matrix(0.28763207,0,0,0.26407725,53.226479,311.17032)"
       d="m -95.387841,199.46829 a 6.4306407,6.9665275 0 1 1 -12.861279,0 6.4306407,6.9665275 0 1 1 12.861279,0 z"
       sodipodi:ry="6.9665275"
       sodipodi:rx="6.4306407"
       sodipodi:cy="199.46829"
       sodipodi:cx="-101.81848"
       id="path5934"
       style="fill:#ffffff;fill-opacity:1;stroke:#ffffff;stroke-width:1.09099996;stroke-miterlimit:4;stroke-opacity:1;stroke-dasharray:none;stroke-dashoffset:0"
       sodipodi:type="arc" />
    <path
       sodipodi:type="arc"
       style="fill:#ffffff;fill-opacity:1;stroke:#ffffff;stroke-width:1.09099996;stroke-miterlimit:4;stroke-opacity:1;stroke-dasharray:none;stroke-dashoffset:0"
       id="path5938"
       sodipodi:cx="-101.81848"
       sodipodi:cy="199.46829"
       sodipodi:rx="6.4306407"
       sodipodi:ry="6.9665275"
       d="m -95.387841,199.46829 a 6.4306407,6.9665275 0 1 1 -12.861279,0 6.4306407,6.9665275 0 1 1 12.861279,0 z"
       transform="matrix(0.28763207,0,0,0.26407725,66.61139,308.39423)" />
    <path
       transform="matrix(0.28763207,0,0,0.26407725,82.406637,306.47588)"
       d="m -95.387841,199.46829 a 6.4306407,6.9665275 0 1 1 -12.861279,0 6.4306407,6.9665275 0 1 1 12.861279,0 z"
       sodipodi:ry="6.9665275"
       sodipodi:rx="6.4306407"
       sodipodi:cy="199.46829"
       sodipodi:cx="-101.81848"
       id="path5948"
       style="fill:#ffffff;fill-opacity:1;stroke:#ffffff;stroke-width:1.09099996;stroke-miterlimit:4;stroke-opacity:1;stroke-dasharray:none;stroke-dashoffset:0"
       sodipodi:type="arc" />
    <path
       sodipodi:type="arc"
       style="fill:#ffffff;fill-opacity:1;stroke:#ffffff;stroke-width:1.09099996;stroke-miterlimit:4;stroke-opacity:1;stroke-dasharray:none;stroke-dashoffset:0"
       id="path5952"
       sodipodi:cx="-101.81848"
       sodipodi:cy="199.46829"
       sodipodi:rx="6.4306407"
       sodipodi:ry="6.9665275"
       d="m -95.387841,199.46829 a 6.4306407,6.9665275 0 1 1 -12.861279,0 6.4306407,6.9665275 0 1 1 12.861279,0 z"
       transform="matrix(0.28763207,0,0,0.26407725,71.343878,317.19675)" />
    <path
       transform="matrix(0.28763207,0,0,0.26407725,58.580445,326.94089)"
       d="m -95.387841,199.46829 a 6.4306407,6.9665275 0 1 1 -12.861279,0 6.4306407,6.9665275 0 1 1 12.861279,0 z"
       sodipodi:ry="6.9665275"
       sodipodi:rx="6.4306407"
       sodipodi:cy="199.46829"
       sodipodi:cx="-101.81848"
       id="path5956"
       style="fill:#ffffff;fill-opacity:1;stroke:#ffffff;stroke-width:1.09099996;stroke-miterlimit:4;stroke-opacity:1;stroke-dasharray:none;stroke-dashoffset:0"
       sodipodi:type="arc" />
    <path
       sodipodi:type="arc"
       style="fill:#ffffff;fill-opacity:1;stroke:#ffffff;stroke-width:1.09099996;stroke-miterlimit:4;stroke-opacity:1;stroke-dasharray:none;stroke-dashoffset:0"
       id="path5960"
       sodipodi:cx="-101.81848"
       sodipodi:cy="199.46829"
       sodipodi:rx="6.4306407"
       sodipodi:ry="6.9665275"
       d="m -95.387841,199.46829 a 6.4306407,6.9665275 0 1 1 -12.861279,0 6.4306407,6.9665275 0 1 1 12.861279,0 z"
       transform="matrix(0.28763207,0,0,0.26407725,64.053386,329.48072)" />
    <path
       transform="matrix(0.27973047,0.06611494,-0.06157254,0.25682272,71.930214,349.16665)"
       d="m -95.387841,199.46829 a 6.4306407,6.9665275 0 1 1 -12.861279,0 6.4306407,6.9665275 0 1 1 12.861279,0 z"
       sodipodi:ry="6.9665275"
       sodipodi:rx="6.4306407"
       sodipodi:cy="199.46829"
       sodipodi:cx="-101.81848"
       id="path5964"
       style="fill:#ffffff;fill-opacity:1;stroke:#ffffff;stroke-width:1.09099996;stroke-miterlimit:4;stroke-opacity:1;stroke-dasharray:none;stroke-dashoffset:0"
       sodipodi:type="arc" />
    <path
       sodipodi:type="arc"
       style="fill:#ffffff;fill-opacity:1;stroke:#ffffff;stroke-width:1.09099996;stroke-miterlimit:4;stroke-opacity:1;stroke-dasharray:none;stroke-dashoffset:0"
       id="path5968"
       sodipodi:cx="-101.81848"
       sodipodi:cy="199.46829"
       sodipodi:rx="6.4306407"
       sodipodi:ry="6.9665275"
       d="m -95.387841,199.46829 a 6.4306407,6.9665275 0 1 1 -12.861279,0 6.4306407,6.9665275 0 1 1 12.861279,0 z"
       transform="matrix(0.28763207,0,0,0.26407725,76.697841,334.91478)" />
    <path
       transform="matrix(0.28763207,0,0,0.26407725,84.866896,335.27003)"
       d="m -95.387841,199.46829 a 6.4306407,6.9665275 0 1 1 -12.861279,0 6.4306407,6.9665275 0 1 1 12.861279,0 z"
       sodipodi:ry="6.9665275"
       sodipodi:rx="6.4306407"
       sodipodi:cy="199.46829"
       sodipodi:cx="-101.81848"
       id="path5972"
       style="fill:#ffffff;fill-opacity:1;stroke:#ffffff;stroke-width:1.09099996;stroke-miterlimit:4;stroke-opacity:1;stroke-dasharray:none;stroke-dashoffset:0"
       sodipodi:type="arc" />
    <path
       sodipodi:type="arc"
       style="fill:#ffffff;fill-opacity:1;stroke:#ffffff;stroke-width:1.09099996;stroke-miterlimit:4;stroke-opacity:1;stroke-dasharray:none;stroke-dashoffset:0"
       id="path5976"
       sodipodi:cx="-101.81848"
       sodipodi:cy="199.46829"
       sodipodi:rx="6.4306407"
       sodipodi:ry="6.9665275"
       d="m -95.387841,199.46829 a 6.4306407,6.9665275 0 1 1 -12.861279,0 6.4306407,6.9665275 0 1 1 12.861279,0 z"
       transform="matrix(0.28763207,0,0,0.26407725,79.591548,319.38133)" />
    <path
       style="fill:#ffffff;fill-opacity:1;stroke:#ffffff;stroke-width:0.5;stroke-linecap:butt;stroke-linejoin:miter;stroke-opacity:1;stroke-miterlimit:4;stroke-dasharray:none"
       d="m 53.427504,357.85913 4.964533,-5.81047"
       id="path5990"
       inkscape:connector-curvature="0" />
    <path
       style="fill:#ffffff;fill-opacity:1;stroke:#ffffff;stroke-width:0.5;stroke-linecap:butt;stroke-linejoin:miter;stroke-opacity:1;stroke-miterlimit:4;stroke-dasharray:none"
       d="m 60.388945,352.04866 5.824308,6.22353"
       id="path5992"
       inkscape:connector-curvature="0" />
    <path
       style="fill:#ffffff;fill-opacity:1;stroke:#ffffff;stroke-width:0.5;stroke-linecap:butt;stroke-linejoin:miter;stroke-opacity:1;stroke-miterlimit:4;stroke-dasharray:none"
       d="m 47.603194,386.77376 1.608619,-13.54857"
       id="path5994"
       inkscape:connector-curvature="0" />
    <path
       style="fill:#ffffff;fill-opacity:1;stroke:#ffffff;stroke-width:0.5;stroke-linecap:butt;stroke-linejoin:miter;stroke-opacity:1;stroke-miterlimit:4;stroke-dasharray:none"
       d="m 51.291924,372.70197 3.633262,14.12686"
       id="path5996"
       inkscape:connector-curvature="0" />
    <path
       style="fill:#ffffff;fill-opacity:1;stroke:#ffffff;stroke-width:0.5;stroke-linecap:butt;stroke-linejoin:miter;stroke-opacity:1;stroke-miterlimit:4;stroke-dasharray:none"
       d="M 29.603299,379.09073 40.94261,370.28705"
       id="path5998"
       inkscape:connector-curvature="0"
       sodipodi:nodetypes="cc" />
    <path
       style="fill:#ffffff;fill-opacity:1;stroke:#ffffff;stroke-width:0.5;stroke-linecap:butt;stroke-linejoin:miter;stroke-opacity:1;stroke-miterlimit:4;stroke-dasharray:none"
       d="m 35.233466,381.76189 6.489946,-10.84987"
       id="path6000"
       inkscape:connector-curvature="0" />
    <path
       style="fill:#ffffff;fill-opacity:1;stroke:#ffffff;stroke-width:0.5;stroke-linecap:butt;stroke-linejoin:miter;stroke-miterlimit:4;stroke-opacity:1;stroke-dasharray:none"
       d="m 31.512892,392.2596 2.735071,-8.81237"
       id="path6002"
       inkscape:connector-curvature="0" />
    <path
       style="fill:#ffffff;fill-opacity:1;stroke:#ffffff;stroke-width:0.5;stroke-linecap:butt;stroke-linejoin:miter;stroke-opacity:1;stroke-miterlimit:4;stroke-dasharray:none"
       d="m 42.777334,368.35101 8.958348,-8.37148"
       id="path6004"
       inkscape:connector-curvature="0" />
    <path
       style="fill:#ffffff;fill-opacity:1;stroke:#ffffff;stroke-width:0.5;stroke-linecap:butt;stroke-linejoin:miter;stroke-opacity:1;stroke-miterlimit:4;stroke-dasharray:none"
       d="m 37.62491,360.54055 13.805072,-1.74453"
       id="path6006"
       inkscape:connector-curvature="0" />
    <path
       style="fill:#ffffff;fill-opacity:1;stroke:#ffffff;stroke-width:0.5;stroke-linecap:butt;stroke-linejoin:miter;stroke-opacity:1;stroke-miterlimit:4;stroke-dasharray:none"
       d="m 24.36142,363.39421 11.038455,-1.73487"
       id="path6008"
       inkscape:connector-curvature="0" />
    <path
       style="fill:#ffffff;fill-opacity:1;stroke:#ffffff;stroke-width:0.5;stroke-linecap:butt;stroke-linejoin:miter;stroke-opacity:1;stroke-miterlimit:4;stroke-dasharray:none"
       d="M 51.008108,371.16175 53.62165,360.11722"
       id="path6010"
       inkscape:connector-curvature="0"
       sodipodi:nodetypes="cc" />
    <path
       style="fill:#ffffff;fill-opacity:1;stroke:#ffffff;stroke-width:0.5;stroke-linecap:butt;stroke-linejoin:miter;stroke-opacity:1;stroke-miterlimit:4;stroke-dasharray:none"
       d="m 68.459775,359.81431 9.318898,8.39901"
       id="path6012"
       inkscape:connector-curvature="0" />
    <path
       style="fill:#ffffff;fill-opacity:1;stroke:#ffffff;stroke-width:0.5;stroke-linecap:butt;stroke-linejoin:miter;stroke-opacity:1;stroke-miterlimit:4;stroke-dasharray:none"
       d="m 68.792593,358.9331 10.5947,0.27538"
       id="path6014"
       inkscape:connector-curvature="0" />
    <path
       style="fill:#ffffff;fill-opacity:1;stroke:#ffffff;stroke-width:0.5;stroke-linecap:butt;stroke-linejoin:miter;stroke-opacity:1;stroke-miterlimit:4;stroke-dasharray:none"
       d="m 67.79414,360.22737 1.802763,13.35581"
       id="path6016"
       inkscape:connector-curvature="0" />
    <path
       style="fill:#ffffff;fill-opacity:1;stroke:#ffffff;stroke-width:0.5;stroke-linecap:butt;stroke-linejoin:miter;stroke-opacity:1;stroke-miterlimit:4;stroke-dasharray:none"
       d="m 79.30409,370.1685 8.149809,1.51038"
       id="path6018"
       inkscape:connector-curvature="0"
       sodipodi:nodetypes="cc" />
    <path
       style="fill:#ffffff;fill-opacity:1;stroke:#ffffff;stroke-width:0.5;stroke-linecap:butt;stroke-linejoin:miter;stroke-opacity:1;stroke-miterlimit:4;stroke-dasharray:none"
       d="m 82.113726,358.61795 10.426386,-4.60803"
       id="path6020"
       inkscape:connector-curvature="0" />
    <path
       style="fill:#ffffff;fill-opacity:1;stroke:#ffffff;stroke-width:0.5;stroke-linecap:butt;stroke-linejoin:miter;stroke-opacity:1;stroke-miterlimit:4;stroke-dasharray:none"
       d="m 23.497111,342.96029 13.352513,0.34717"
       id="path6022"
       inkscape:connector-curvature="0" />
    <path
       style="fill:#ffffff;fill-opacity:1;stroke:#ffffff;stroke-width:0.5;stroke-linecap:butt;stroke-linejoin:miter;stroke-opacity:1;stroke-miterlimit:4;stroke-dasharray:none"
       d="M 39.518138,343.15263 50.008097,342.9317"
       id="path6024"
       inkscape:connector-curvature="0" />
    <path
       style="fill:#ffffff;fill-opacity:1;stroke:#ffffff;stroke-width:0.5;stroke-linecap:butt;stroke-linejoin:miter;stroke-opacity:1;stroke-miterlimit:4;stroke-dasharray:none"
       d="m 52.455754,343.87856 5.869743,6.40801"
       id="path6026"
       inkscape:connector-curvature="0"
       sodipodi:nodetypes="cc" />
    <path
       style="fill:#ffffff;fill-opacity:1;stroke:#ffffff;stroke-width:0.5;stroke-linecap:butt;stroke-linejoin:miter;stroke-opacity:1;stroke-miterlimit:4;stroke-dasharray:none"
       d="m 60.745834,350.25345 5.730478,-6.17672"
       id="path6028"
       inkscape:connector-curvature="0" />
    <path
       style="fill:#ffffff;fill-opacity:1;stroke:#ffffff;stroke-width:0.5;stroke-linecap:butt;stroke-linejoin:miter;stroke-opacity:1;stroke-miterlimit:4;stroke-dasharray:none"
       d="m 68.603471,343.77975 13.468306,-2.75107"
       id="path6032"
       inkscape:connector-curvature="0" />
    <path
       style="fill:#ffffff;fill-opacity:1;stroke:#ffffff;stroke-width:0.5;stroke-linecap:butt;stroke-linejoin:miter;stroke-opacity:1;stroke-miterlimit:4;stroke-dasharray:none"
       d="m 68.65166,342.72717 8.264093,-9.35365"
       id="path6034"
       inkscape:connector-curvature="0" />
    <path
       style="fill:#ffffff;fill-opacity:1;stroke:#ffffff;stroke-width:0.5;stroke-linecap:butt;stroke-linejoin:miter;stroke-opacity:1;stroke-miterlimit:4;stroke-dasharray:none"
       d="m 67.760199,341.93773 1.469705,-10.88468"
       id="path6036"
       inkscape:connector-curvature="0" />
    <path
       style="fill:#ffffff;fill-opacity:1;stroke:#ffffff;stroke-width:0.5;stroke-linecap:butt;stroke-linejoin:miter;stroke-opacity:1;stroke-miterlimit:4;stroke-dasharray:none"
       d="m 69.735868,328.68473 c 0,-0.11961 -0.337311,-8.18145 -0.337311,-8.18145"
       id="path6038"
       inkscape:connector-curvature="0" />
    <path
       style="fill:#ffffff;fill-opacity:1;stroke:#ffffff;stroke-width:0.5;stroke-linecap:butt;stroke-linejoin:miter;stroke-opacity:1;stroke-miterlimit:4;stroke-dasharray:none"
       d="M 79.46967,332.44054 90.38406,320.33583"
       id="path6040"
       inkscape:connector-curvature="0" />
    <path
       style="fill:#ffffff;fill-opacity:1;stroke:#ffffff;stroke-width:0.5;stroke-linecap:butt;stroke-linejoin:miter;stroke-opacity:1;stroke-miterlimit:4;stroke-dasharray:none"
       d="m 78.891426,331.45973 6.071581,-13.80321"
       id="path6042"
       inkscape:connector-curvature="0" />
    <path
       style="fill:#ffffff;fill-opacity:1;stroke:#ffffff;stroke-width:0.5;stroke-linecap:butt;stroke-linejoin:miter;stroke-opacity:1;stroke-miterlimit:4;stroke-dasharray:none"
       d="m 84.673881,340.11963 13.304233,-5.17027"
       id="path6044"
       inkscape:connector-curvature="0"
       sodipodi:nodetypes="cc" />
    <path
       style="fill:#ffffff;fill-opacity:1;stroke:#ffffff;stroke-width:0.5;stroke-linecap:butt;stroke-linejoin:miter;stroke-opacity:1;stroke-miterlimit:4;stroke-dasharray:none"
       d="m 84.697977,340.90907 18.503863,0.95689"
       id="path6046"
       inkscape:connector-curvature="0" />
    <path
       style="fill:#ffffff;fill-opacity:1;stroke:#ffffff;stroke-width:0.5;stroke-linecap:butt;stroke-linejoin:miter;stroke-opacity:1;stroke-miterlimit:4;stroke-dasharray:none"
       d="m 105.77527,342.43858 8.12411,0.74311"
       id="path6048"
       inkscape:connector-curvature="0"
       sodipodi:nodetypes="cc" />
    <path
       style="fill:#ffffff;fill-opacity:1;stroke:#ffffff;stroke-width:0.5;stroke-linecap:butt;stroke-linejoin:miter;stroke-opacity:1;stroke-miterlimit:4;stroke-dasharray:none"
       d="m 50.864792,341.85609 c -0.180219,-0.0511 -8.856591,-5.95617 -8.856591,-5.95617"
       id="path6050"
       inkscape:connector-curvature="0" />
    <path
       style="fill:#ffffff;fill-opacity:1;stroke:#ffffff;stroke-width:0.5;stroke-linecap:butt;stroke-linejoin:miter;stroke-opacity:1;stroke-miterlimit:4;stroke-dasharray:none"
       d="m 26.01999,333.19025 13.394982,2.09969"
       id="path6052"
       inkscape:connector-curvature="0"
       sodipodi:nodetypes="cc" />
    <path
       style="fill:#ffffff;fill-opacity:1;stroke:#ffffff;stroke-width:0.5;stroke-linecap:butt;stroke-linejoin:miter;stroke-opacity:1;stroke-miterlimit:4;stroke-dasharray:none"
       d="m 25.788278,325.7003 c 0.102984,0 13.980029,8.58916 13.980029,8.58916"
       id="path6054"
       inkscape:connector-curvature="0" />
    <path
       style="fill:#ffffff;fill-opacity:1;stroke:#ffffff;stroke-width:0.5;stroke-linecap:butt;stroke-linejoin:miter;stroke-opacity:1;stroke-miterlimit:4;stroke-dasharray:none"
       d="m 40.372895,334.06009 -9.29605,-11.0485"
       id="path6056"
       inkscape:connector-curvature="0"
       sodipodi:nodetypes="cc" />
    <path
       style="fill:#ffffff;fill-opacity:1;stroke:#ffffff;stroke-width:0.5;stroke-linecap:butt;stroke-linejoin:miter;stroke-opacity:1;stroke-miterlimit:4;stroke-dasharray:none"
       d="M 48.779374,328.53779 48.315946,323.4252"
       id="path6058"
       inkscape:connector-curvature="0" />
    <path
       style="fill:#ffffff;fill-opacity:1;stroke:#ffffff;stroke-width:0.5;stroke-linecap:butt;stroke-linejoin:miter;stroke-opacity:1;stroke-miterlimit:4;stroke-dasharray:none"
       d="m 49.242802,331.24746 2.478521,10.62256"
       id="path6060"
       inkscape:connector-curvature="0"
       sodipodi:nodetypes="cc" />
    <path
       style="fill:#ffffff;fill-opacity:1;stroke:#ffffff;stroke-width:0.5;stroke-linecap:butt;stroke-linejoin:miter;stroke-opacity:1;stroke-miterlimit:4;stroke-dasharray:none"
       d="m 48.341434,320.80681 -1.845007,-5.52118"
       id="path6062"
       inkscape:connector-curvature="0"
       sodipodi:nodetypes="cc" />
    <path
       style="fill:#ffffff;fill-opacity:1;stroke:#ffffff;stroke-width:0.5;stroke-linecap:butt;stroke-linejoin:miter;stroke-opacity:1;stroke-miterlimit:4;stroke-dasharray:none"
       d="m 49.468971,320.83227 3.94631,-5.54664"
       id="path6064"
       inkscape:connector-curvature="0" />
    <path
       style="fill:#ffffff;fill-opacity:1;stroke:#ffffff;stroke-width:0.5;stroke-linecap:butt;stroke-linejoin:miter;stroke-miterlimit:4;stroke-opacity:1;stroke-dasharray:none"
       d="m 54.604229,312.75901 3.164835,-10.34262"
       id="path6066"
       inkscape:connector-curvature="0"
       sodipodi:nodetypes="cc" />
  </g>
</svg>
